<?xml version="1.0" encoding="UTF-8" standalone="no"?>
<!-- Created with Inkscape (http://www.inkscape.org/) -->
<svg
   xmlns:dc="http://purl.org/dc/elements/1.1/"
   xmlns:cc="http://creativecommons.org/ns#"
   xmlns:rdf="http://www.w3.org/1999/02/22-rdf-syntax-ns#"
   xmlns:svg="http://www.w3.org/2000/svg"
   xmlns="http://www.w3.org/2000/svg"
   xmlns:xlink="http://www.w3.org/1999/xlink"
   xmlns:sodipodi="http://sodipodi.sourceforge.net/DTD/sodipodi-0.dtd"
   xmlns:inkscape="http://www.inkscape.org/namespaces/inkscape"
   width="744.09448819"
   height="1052.3622047"
   id="svg2387"
   sodipodi:version="0.32"
   inkscape:version="0.46"
   sodipodi:docname="message.svg"
   inkscape:output_extension="org.inkscape.output.svg.inkscape">
  <defs
     id="defs2389">
    <linearGradient
       id="XMLID_21_"
       gradientUnits="userSpaceOnUse"
       x1="154.4004"
       y1="57.6665"
       x2="154.4004"
       y2="272.6664">
	<stop
   offset="0"
   style="stop-color:#E0DEFF"
   id="stop3304" />

	<stop
   offset="0.1863"
   style="stop-color:#E2E0FF"
   id="stop3306" />

	<stop
   offset="0.2533"
   style="stop-color:#E8E7FF"
   id="stop3308" />

	<stop
   offset="0.301"
   style="stop-color:#F3F2FF"
   id="stop3310" />

	<stop
   offset="0.3315"
   style="stop-color:#FFFFFF"
   id="stop3312" />

	<stop
   offset="0.5582"
   style="stop-color:#FFFFFF"
   id="stop3314" />

	<stop
   offset="0.5955"
   style="stop-color:#FFFFFF"
   id="stop3316" />

	<stop
   offset="0.6053"
   style="stop-color:#F2F5F6"
   id="stop3318" />

	<stop
   offset="0.6512"
   style="stop-color:#BAC9CF"
   id="stop3320" />

	<stop
   offset="0.6985"
   style="stop-color:#88A1AD"
   id="stop3322" />

	<stop
   offset="0.7463"
   style="stop-color:#5E8090"
   id="stop3324" />

	<stop
   offset="0.7945"
   style="stop-color:#3C6679"
   id="stop3326" />

	<stop
   offset="0.8434"
   style="stop-color:#225166"
   id="stop3328" />

	<stop
   offset="0.8933"
   style="stop-color:#0F4259"
   id="stop3330" />

	<stop
   offset="0.9447"
   style="stop-color:#043952"
   id="stop3332" />

	<stop
   offset="1"
   style="stop-color:#00364F"
   id="stop3334" />

</linearGradient>
    <linearGradient
       id="XMLID_22_"
       gradientUnits="userSpaceOnUse"
       x1="210.729"
       y1="80.0576"
       x2="212.729"
       y2="92.0576"
       gradientTransform="matrix(7.1600839e-2,0,0,6.2866831e-2,39.676241,557.69046)">
	<stop
   offset="0"
   style="stop-color:#FFFFFF"
   id="stop3486" />

	<stop
   offset="0.2135"
   style="stop-color:#D4D4D4"
   id="stop3488" />

	<stop
   offset="0.4574"
   style="stop-color:#AAAAAA"
   id="stop3490" />

	<stop
   offset="0.6785"
   style="stop-color:#8C8C8C"
   id="stop3492" />

	<stop
   offset="0.8668"
   style="stop-color:#7A7A7A"
   id="stop3494" />

	<stop
   offset="1"
   style="stop-color:#737373"
   id="stop3496" />

</linearGradient>
    <linearGradient
       id="XMLID_23_"
       gradientUnits="userSpaceOnUse"
       x1="213.1958"
       y1="107.1665"
       x2="213.1958"
       y2="131.6665"
       gradientTransform="matrix(7.1600839e-2,0,0,6.2866831e-2,39.676241,557.69046)">
	<stop
   offset="0"
   style="stop-color:#FFFFFF"
   id="stop3501" />

	<stop
   offset="0.2135"
   style="stop-color:#D4D4D4"
   id="stop3503" />

	<stop
   offset="0.4574"
   style="stop-color:#AAAAAA"
   id="stop3505" />

	<stop
   offset="0.6785"
   style="stop-color:#8C8C8C"
   id="stop3507" />

	<stop
   offset="0.8668"
   style="stop-color:#7A7A7A"
   id="stop3509" />

	<stop
   offset="1"
   style="stop-color:#737373"
   id="stop3511" />

</linearGradient>
    <linearGradient
       id="XMLID_24_"
       gradientUnits="userSpaceOnUse"
       x1="172.5005"
       y1="92.1665"
       x2="172.5005"
       y2="150.6665"
       gradientTransform="matrix(7.1600839e-2,0,0,6.2866831e-2,39.676241,557.69046)">
	<stop
   offset="0"
   style="stop-color:#FFFFFF"
   id="stop3516" />

	<stop
   offset="0.2135"
   style="stop-color:#D4D4D4"
   id="stop3518" />

	<stop
   offset="0.4574"
   style="stop-color:#AAAAAA"
   id="stop3520" />

	<stop
   offset="0.6785"
   style="stop-color:#8C8C8C"
   id="stop3522" />

	<stop
   offset="0.8668"
   style="stop-color:#7A7A7A"
   id="stop3524" />

	<stop
   offset="1"
   style="stop-color:#737373"
   id="stop3526" />

</linearGradient>
    <linearGradient
       id="XMLID_25_"
       gradientUnits="userSpaceOnUse"
       x1="177.5376"
       y1="123.7515"
       x2="170.8716"
       y2="147.085"
       gradientTransform="matrix(7.1600839e-2,0,0,6.2866831e-2,39.676241,557.69046)">
	<stop
   offset="0"
   style="stop-color:#FFFFFF"
   id="stop3531" />

	<stop
   offset="0.1944"
   style="stop-color:#C4C4C4"
   id="stop3533" />

	<stop
   offset="0.3961"
   style="stop-color:#8F8F8F"
   id="stop3535" />

	<stop
   offset="0.5846"
   style="stop-color:#656565"
   id="stop3537" />

	<stop
   offset="0.7539"
   style="stop-color:#464646"
   id="stop3539" />

	<stop
   offset="0.8981"
   style="stop-color:#343434"
   id="stop3541" />

	<stop
   offset="1"
   style="stop-color:#2D2D2D"
   id="stop3543" />

</linearGradient>
    <linearGradient
       id="XMLID_26_"
       gradientUnits="userSpaceOnUse"
       x1="175.2378"
       y1="36.2803"
       x2="175.2378"
       y2="66.9015"
       gradientTransform="matrix(7.1600839e-2,0,0,6.2866831e-2,39.676241,557.69046)">
	<stop
   offset="0"
   style="stop-color:#FFFFFF"
   id="stop3562" />

	<stop
   offset="0.2135"
   style="stop-color:#D4D4D4"
   id="stop3564" />

	<stop
   offset="0.4574"
   style="stop-color:#AAAAAA"
   id="stop3566" />

	<stop
   offset="0.6785"
   style="stop-color:#8C8C8C"
   id="stop3568" />

	<stop
   offset="0.8668"
   style="stop-color:#7A7A7A"
   id="stop3570" />

	<stop
   offset="1"
   style="stop-color:#737373"
   id="stop3572" />

</linearGradient>
    <linearGradient
       id="XMLID_27_"
       gradientUnits="userSpaceOnUse"
       x1="140.2998"
       y1="104.1665"
       x2="140.2998"
       y2="136.6665"
       gradientTransform="matrix(7.1600839e-2,0,0,6.2866831e-2,39.676241,557.69046)">
	<stop
   offset="0"
   style="stop-color:#FFFFFF"
   id="stop3577" />

	<stop
   offset="0.2135"
   style="stop-color:#D4D4D4"
   id="stop3579" />

	<stop
   offset="0.4574"
   style="stop-color:#AAAAAA"
   id="stop3581" />

	<stop
   offset="0.6785"
   style="stop-color:#8C8C8C"
   id="stop3583" />

	<stop
   offset="0.8668"
   style="stop-color:#7A7A7A"
   id="stop3585" />

	<stop
   offset="1"
   style="stop-color:#737373"
   id="stop3587" />

</linearGradient>
    <linearGradient
       id="XMLID_28_"
       gradientUnits="userSpaceOnUse"
       x1="141.3193"
       y1="32.6665"
       x2="141.3193"
       y2="61.1665"
       gradientTransform="matrix(7.1600839e-2,0,0,6.2866831e-2,39.676241,557.69046)">
	<stop
   offset="0"
   style="stop-color:#FFFFFF"
   id="stop3592" />

	<stop
   offset="0.2135"
   style="stop-color:#D4D4D4"
   id="stop3594" />

	<stop
   offset="0.4574"
   style="stop-color:#AAAAAA"
   id="stop3596" />

	<stop
   offset="0.6785"
   style="stop-color:#8C8C8C"
   id="stop3598" />

	<stop
   offset="0.8668"
   style="stop-color:#7A7A7A"
   id="stop3600" />

	<stop
   offset="1"
   style="stop-color:#737373"
   id="stop3602" />

</linearGradient>
    <linearGradient
       id="XMLID_29_"
       gradientUnits="userSpaceOnUse"
       x1="17.2441"
       y1="330.7212"
       x2="27.0708"
       y2="330.7212"
       gradientTransform="matrix(7.1600775e-2,0,0,6.2866835e-2,39.676261,557.69053)">
	<stop
   offset="0.0056"
   style="stop-color:#000000"
   id="stop3613" />

	<stop
   offset="0.7303"
   style="stop-color:#3F2200"
   id="stop3615" />

	<stop
   offset="0.7824"
   style="stop-color:#532A00"
   id="stop3617" />

	<stop
   offset="0.8636"
   style="stop-color:#6B3300"
   id="stop3619" />

	<stop
   offset="0.9384"
   style="stop-color:#7A3900"
   id="stop3621" />

	<stop
   offset="1"
   style="stop-color:#7F3B00"
   id="stop3623" />

</linearGradient>
    <linearGradient
       id="XMLID_30_"
       gradientUnits="userSpaceOnUse"
       x1="17.2876"
       y1="326.9858"
       x2="38.2559"
       y2="326.9858"
       gradientTransform="matrix(7.1600775e-2,0,0,6.2866835e-2,39.676261,557.69053)">
	<stop
   offset="0"
   style="stop-color:#904F2C"
   id="stop3628" />

	<stop
   offset="0.171"
   style="stop-color:#AB6E3F"
   id="stop3630" />

	<stop
   offset="0.4206"
   style="stop-color:#CD9557"
   id="stop3632" />

	<stop
   offset="0.6503"
   style="stop-color:#E5B169"
   id="stop3634" />

	<stop
   offset="0.8508"
   style="stop-color:#F4C273"
   id="stop3636" />

	<stop
   offset="1"
   style="stop-color:#F9C877"
   id="stop3638" />

</linearGradient>
    <radialGradient
       id="XMLID_31_"
       cx="20.5708"
       cy="338.9985"
       r="9.0139"
       gradientUnits="userSpaceOnUse">
	<stop
   offset="0"
   style="stop-color:#FFFFFF"
   id="stop3643" />

	<stop
   offset="1"
   style="stop-color:#000000"
   id="stop3645" />

</radialGradient>
    <radialGradient
       id="XMLID_32_"
       cx="24.9878"
       cy="253.6665"
       r="10.5416"
       gradientUnits="userSpaceOnUse">
	<stop
   offset="0"
   style="stop-color:#FFFFFF"
   id="stop3650" />

	<stop
   offset="1"
   style="stop-color:#000000"
   id="stop3652" />

</radialGradient>
    <linearGradient
       id="XMLID_33_"
       gradientUnits="userSpaceOnUse"
       x1="21.0649"
       y1="258.834"
       x2="29.1167"
       y2="258.834"
       gradientTransform="matrix(7.1600775e-2,0,0,6.2866835e-2,39.676261,557.69053)">
	<stop
   offset="0.0056"
   style="stop-color:#000000"
   id="stop3657" />

	<stop
   offset="0.7303"
   style="stop-color:#3F2200"
   id="stop3659" />

	<stop
   offset="0.7824"
   style="stop-color:#532A00"
   id="stop3661" />

	<stop
   offset="0.8636"
   style="stop-color:#6B3300"
   id="stop3663" />

	<stop
   offset="0.9384"
   style="stop-color:#7A3900"
   id="stop3665" />

	<stop
   offset="1"
   style="stop-color:#7F3B00"
   id="stop3667" />

</linearGradient>
    <linearGradient
       id="XMLID_34_"
       gradientUnits="userSpaceOnUse"
       x1="-867.9219"
       y1="43.8892"
       x2="-858.0952"
       y2="43.8892"
       gradientTransform="matrix(-7.1600775e-2,0,0,-6.2866835e-2,-2.0210996,576.57151)">
	<stop
   offset="0.0056"
   style="stop-color:#000000"
   id="stop3674" />

	<stop
   offset="0.7303"
   style="stop-color:#3F2200"
   id="stop3676" />

	<stop
   offset="0.7824"
   style="stop-color:#532A00"
   id="stop3678" />

	<stop
   offset="0.8636"
   style="stop-color:#6B3300"
   id="stop3680" />

	<stop
   offset="0.9384"
   style="stop-color:#7A3900"
   id="stop3682" />

	<stop
   offset="1"
   style="stop-color:#7F3B00"
   id="stop3684" />

</linearGradient>
    <linearGradient
       id="XMLID_35_"
       gradientUnits="userSpaceOnUse"
       x1="258.0698"
       y1="260.1812"
       x2="288.7368"
       y2="260.1812"
       gradientTransform="matrix(7.1600775e-2,0,0,6.2866835e-2,39.676261,557.69053)">
	<stop
   offset="0"
   style="stop-color:#904F2C"
   id="stop3689" />

	<stop
   offset="0.171"
   style="stop-color:#AB6E3F"
   id="stop3691" />

	<stop
   offset="0.4206"
   style="stop-color:#CD9557"
   id="stop3693" />

	<stop
   offset="0.6503"
   style="stop-color:#E5B169"
   id="stop3695" />

	<stop
   offset="0.8508"
   style="stop-color:#F4C273"
   id="stop3697" />

	<stop
   offset="1"
   style="stop-color:#F9C877"
   id="stop3699" />

</linearGradient>
    <radialGradient
       id="XMLID_36_"
       cx="-862.5952"
       cy="53.1665"
       r="9.0139"
       gradientTransform="matrix(-1,0,0,-1,-582.3584,300.333)"
       gradientUnits="userSpaceOnUse">
	<stop
   offset="0"
   style="stop-color:#FFFFFF"
   id="stop3704" />

	<stop
   offset="1"
   style="stop-color:#000000"
   id="stop3706" />

</radialGradient>
    <radialGradient
       id="XMLID_37_"
       cx="-860.1782"
       cy="-31.1655"
       r="10.5416"
       gradientTransform="matrix(-1,0,0,-1,-582.3584,300.333)"
       gradientUnits="userSpaceOnUse">
	<stop
   offset="0"
   style="stop-color:#FFFFFF"
   id="stop3711" />

	<stop
   offset="0.1455"
   style="stop-color:#D3D3D3"
   id="stop3713" />

	<stop
   offset="0.4612"
   style="stop-color:#7A7A7A"
   id="stop3715" />

	<stop
   offset="0.7185"
   style="stop-color:#383838"
   id="stop3717" />

	<stop
   offset="0.9043"
   style="stop-color:#101010"
   id="stop3719" />

	<stop
   offset="1"
   style="stop-color:#000000"
   id="stop3721" />

</radialGradient>
    <linearGradient
       id="XMLID_38_"
       gradientUnits="userSpaceOnUse"
       x1="-864.0952"
       y1="-27.6929"
       x2="-856.0952"
       y2="-27.6929"
       gradientTransform="matrix(-7.1600775e-2,0,0,-6.2866835e-2,-2.0210996,576.57151)">
	<stop
   offset="0.0056"
   style="stop-color:#000000"
   id="stop3726" />

	<stop
   offset="0.7303"
   style="stop-color:#3F2200"
   id="stop3728" />

	<stop
   offset="0.7824"
   style="stop-color:#532A00"
   id="stop3730" />

	<stop
   offset="0.8636"
   style="stop-color:#6B3300"
   id="stop3732" />

	<stop
   offset="0.9384"
   style="stop-color:#7A3900"
   id="stop3734" />

	<stop
   offset="1"
   style="stop-color:#7F3B00"
   id="stop3736" />

</linearGradient>
    <linearGradient
       id="XMLID_39_"
       gradientUnits="userSpaceOnUse"
       x1="7.5786"
       y1="293.5317"
       x2="295.7368"
       y2="293.5317"
       gradientTransform="matrix(7.1600775e-2,0,0,6.2866835e-2,39.676261,557.69053)">
	<stop
   offset="0"
   style="stop-color:#904F2C"
   id="stop3741" />

	<stop
   offset="0.171"
   style="stop-color:#AB6E3F"
   id="stop3743" />

	<stop
   offset="0.4206"
   style="stop-color:#CD9557"
   id="stop3745" />

	<stop
   offset="0.6503"
   style="stop-color:#E5B169"
   id="stop3747" />

	<stop
   offset="0.8508"
   style="stop-color:#F4C273"
   id="stop3749" />

	<stop
   offset="1"
   style="stop-color:#F9C877"
   id="stop3751" />

</linearGradient>
    <linearGradient
       id="XMLID_40_"
       gradientUnits="userSpaceOnUse"
       x1="151.6572"
       y1="269.334"
       x2="151.6572"
       y2="318.0005"
       gradientTransform="matrix(7.1600775e-2,0,0,6.2866835e-2,39.676261,557.69053)">
	<stop
   offset="0"
   style="stop-color:#904F2C"
   id="stop3756" />

	<stop
   offset="0.171"
   style="stop-color:#AB6E3F"
   id="stop3758" />

	<stop
   offset="0.4206"
   style="stop-color:#CD9557"
   id="stop3760" />

	<stop
   offset="0.6503"
   style="stop-color:#E5B169"
   id="stop3762" />

	<stop
   offset="0.8508"
   style="stop-color:#F4C273"
   id="stop3764" />

	<stop
   offset="1"
   style="stop-color:#F9C877"
   id="stop3766" />

</linearGradient>
    <linearGradient
       inkscape:collect="always"
       id="linearGradient3182">
      <stop
         style="stop-color:#d8d8d8;stop-opacity:1;"
         offset="0"
         id="stop3184" />
      <stop
         style="stop-color:#d8d8d8;stop-opacity:0;"
         offset="1"
         id="stop3186" />
    </linearGradient>
    <inkscape:perspective
       sodipodi:type="inkscape:persp3d"
       inkscape:vp_x="0 : 526.18109 : 1"
       inkscape:vp_y="0 : 1000 : 0"
       inkscape:vp_z="744.09448 : 526.18109 : 1"
       inkscape:persp3d-origin="372.04724 : 350.78739 : 1"
       id="perspective2395" />
    <linearGradient
       inkscape:collect="always"
       xlink:href="#linearGradient3182"
       id="linearGradient3188"
       x1="199.5"
       y1="562.35818"
       x2="573.521"
       y2="562.35815"
       gradientUnits="userSpaceOnUse"
       gradientTransform="matrix(0.1053113,0,0,0.1159852,12.750221,503.53348)" />
  </defs>
  <sodipodi:namedview
     id="base"
     pagecolor="#ffffff"
     bordercolor="#666666"
     borderopacity="1.0"
     gridtolerance="10000"
     guidetolerance="10"
     objecttolerance="10"
     inkscape:pageopacity="0.0"
     inkscape:pageshadow="2"
     inkscape:zoom="5.6"
     inkscape:cx="118.6946"
     inkscape:cy="447.79884"
     inkscape:document-units="px"
     inkscape:current-layer="layer1"
     showgrid="false"
     inkscape:window-width="1440"
     inkscape:window-height="874"
     inkscape:window-x="-4"
     inkscape:window-y="-4">
    <inkscape:grid
       type="xygrid"
       id="grid2397" />
  </sodipodi:namedview>
  <metadata
     id="metadata2392">
    <rdf:RDF>
      <cc:Work
         rdf:about="">
        <dc:format>image/svg+xml</dc:format>
        <dc:type
           rdf:resource="http://purl.org/dc/dcmitype/StillImage" />
      </cc:Work>
    </rdf:RDF>
  </metadata>
  <g
     inkscape:label="Layer 1"
     inkscape:groupmode="layer"
     id="layer1">
    <path
       id="path2399"
       style="fill:url(#linearGradient3188);fill-opacity:1;fill-rule:evenodd;stroke:#000000;stroke-width:0.11051944px;stroke-linecap:butt;stroke-linejoin:miter;stroke-opacity:1"
       d="M 50.662351,553.68101 C 47.211001,560.99702 42.195011,558.62538 33.812501,551.3613 C 33.812501,572.56736 38.024961,572.23861 50.662351,586.15682 C 63.299711,572.23861 67.564081,572.56643 67.564081,551.36037 C 59.181581,558.62446 54.113691,560.99702 50.662351,553.68101 z"
       sodipodi:nodetypes="ccccc"
       inkscape:export-filename="C:\openanno\openanno\content\gui\images\icons\hud\main\message.png"
       inkscape:export-xdpi="90"
       inkscape:export-ydpi="90" />
    <path
       style="fill:#505050;fill-opacity:1;fill-rule:evenodd;stroke:#000000;stroke-width:0.11051944px;stroke-linecap:butt;stroke-linejoin:miter;stroke-opacity:1"
       d="M 33.820041,551.30415 C 33.660481,551.30415 40.238571,554.35862 43.204491,554.77169 C 48.147631,555.46007 50.608421,553.73445 50.608421,553.73445 C 48.489661,558.36727 44.861461,561.5217 33.820041,551.30415 z"
       id="path3484"
       sodipodi:nodetypes="cscc"
       inkscape:export-filename="C:\openanno\openanno\content\gui\images\icons\hud\main\message.png"
       inkscape:export-xdpi="90"
       inkscape:export-ydpi="90" />
    <path
       style="fill:#505050;fill-opacity:1;fill-rule:evenodd;stroke:#000000;stroke-width:0.11051944px;stroke-linecap:butt;stroke-linejoin:miter;stroke-opacity:1"
       d="M 67.592851,551.32294 C 67.752411,551.32294 61.174321,554.37738 58.208401,554.79044 C 53.265261,555.47883 50.804481,553.75321 50.804481,553.75321 C 52.923231,558.38603 56.551421,561.54048 67.592851,551.32294 z"
       id="path3488"
       sodipodi:nodetypes="cscc"
       inkscape:export-filename="C:\openanno\openanno\content\gui\images\icons\hud\main\message.png"
       inkscape:export-xdpi="90"
       inkscape:export-ydpi="90" />
    <ellipse
       transform="matrix(7.1600775e-2,0,0,6.2866835e-2,39.676261,557.69053)"
       cx="154.401"
       cy="164.495"
       rx="124.83"
       ry="122.95"
       id="ellipse3336"
       style="fill:url(#XMLID_21_);stroke:#382611;stroke-width:10"
       sodipodi:cx="154.401"
       sodipodi:cy="164.495"
       sodipodi:rx="124.83"
       sodipodi:ry="122.95"
       inkscape:export-filename="C:\openanno\openanno\content\gui\images\icons\hud\main\message.png"
       inkscape:export-xdpi="90"
       inkscape:export-ydpi="90" />
    <path
       d="M 44.983801,571.42669 C 44.983801,571.42669 45.556611,571.74102 46.344231,571.52097 C 47.131821,571.30095 48.349041,570.79801 48.349041,570.79801 C 48.349041,570.79801 49.781081,570.26365 50.676071,570.16934 C 51.571081,570.07503 53.253721,569.72927 53.253721,569.72927 L 53.754911,569.72927 L 54.077111,570.39987 C 54.077111,570.39987 54.323851,570.55963 55.471831,570.22881 C 56.602551,569.90298 56.818411,569.21923 56.979021,569.01321 C 57.136981,568.8106 57.263361,568.03194 57.263361,568.03194 L 58.301551,567.8119 C 58.301551,567.8119 58.015171,569.72934 57.263361,570.32656 C 56.511541,570.92381 54.399311,571.86682 52.251291,572.24402 C 50.103261,572.62121 47.991041,573.09273 47.991041,573.09273 L 46.523231,573.15558 C 46.523231,573.15551 45.485021,572.77832 44.983801,571.42669 z"
       id="path3338"
       style="fill:#7a1218"
       inkscape:export-filename="C:\openanno\openanno\content\gui\images\icons\hud\main\message.png"
       inkscape:export-xdpi="90"
       inkscape:export-ydpi="90" />
    <path
       d="M 46.453201,573.13874 C 46.453201,573.13874 48.389781,573.96783 49.800901,573.72158 C 51.988511,573.33984 52.820081,573.14528 54.371381,572.5376 C 55.922701,571.92993 57.234771,570.60965 57.736001,569.69809 L 52.462011,571.76227 L 48.237561,572.93582 L 46.453201,573.13874 z"
       id="path3340"
       style="fill:#270303"
       inkscape:export-filename="C:\openanno\openanno\content\gui\images\icons\hud\main\message.png"
       inkscape:export-xdpi="90"
       inkscape:export-ydpi="90" />
    <ellipse
       transform="matrix(6.7934906e-2,-1.9859653e-2,2.2618709e-2,5.9648124e-2,34.944171,560.69987)"
       cx="114.615"
       cy="227.80099"
       rx="8.9169998"
       ry="4.6550002"
       id="ellipse3342"
       sodipodi:cx="114.615"
       sodipodi:cy="227.80099"
       sodipodi:rx="8.9169998"
       sodipodi:ry="4.6550002"
       inkscape:export-filename="C:\openanno\openanno\content\gui\images\icons\hud\main\message.png"
       inkscape:export-xdpi="90"
       inkscape:export-ydpi="90" />
    <path
       d="M 47.333671,571.98752 C 47.333671,571.98752 47.288931,572.21541 47.494761,572.25469 C 47.700621,572.294 48.040731,572.20756 48.157081,572.13682 C 48.273441,572.0661 48.491091,571.84656 48.491091,571.84656 C 48.491091,571.84656 48.571721,572.02831 48.219741,572.19969 C 47.882631,572.36377 47.629021,572.35686 47.530581,572.34114 C 47.432121,572.32542 47.308981,572.28236 47.277051,572.18875 C 47.235301,572.0661 47.333671,571.98752 47.333671,571.98752 z"
       id="path3344"
       style="fill:#4b110e"
       inkscape:export-filename="C:\openanno\openanno\content\gui\images\icons\hud\main\message.png"
       inkscape:export-xdpi="90"
       inkscape:export-ydpi="90" />
    <path
       d="M 48.905881,572.97767 C 48.810431,572.97767 48.714941,573.06148 48.714941,573.06148 L 48.750731,573.14528 L 48.607521,573.43869 C 48.607521,573.43869 48.452361,573.53296 48.368871,573.62728 C 48.285391,573.72158 48.130231,573.75301 48.034721,573.74252 C 47.939201,573.732 47.951171,573.60626 47.951171,573.60626 L 47.951171,571.97671 L 47.831791,571.94527 L 47.712441,571.97671 L 47.712441,573.60626 C 47.712441,573.60626 47.724321,573.732 47.628881,573.74252 C 47.533441,573.75301 47.378291,573.72158 47.294721,573.62728 C 47.211161,573.53296 47.056071,573.43869 47.056071,573.43869 L 46.912881,573.14528 L 46.948671,573.06148 C 46.948671,573.06148 46.853231,572.97767 46.757701,572.97767 C 46.662211,572.97767 46.590681,573.03004 46.590681,573.22915 C 46.590681,573.42824 46.590681,573.42824 46.590681,573.42824 C 46.590681,573.42824 46.662281,573.38636 46.817421,573.50161 C 46.972591,573.61683 47.008391,573.69021 47.008391,573.69021 L 47.127751,573.88932 C 47.127751,573.88932 47.306761,574.11984 47.831791,574.13028 C 48.356851,574.11977 48.535851,573.88932 48.535851,573.88932 L 48.655221,573.69021 C 48.655221,573.69021 48.691011,573.61683 48.846161,573.50161 C 49.001331,573.38636 49.072931,573.42824 49.072931,573.42824 C 49.072931,573.42824 49.072931,573.42824 49.072931,573.22915 C 49.072931,573.03004 49.001401,572.97767 48.905881,572.97767 z"
       id="path3346"
       style="fill:#8c6631"
       inkscape:export-filename="C:\openanno\openanno\content\gui\images\icons\hud\main\message.png"
       inkscape:export-xdpi="90"
       inkscape:export-ydpi="90" />
    <path
       d="M 44.645621,568.94369 C 44.645621,568.94369 45.529191,568.22927 47.127821,567.97975 C 47.530581,567.91688 47.724481,567.91688 47.724481,567.91688 L 47.867661,568.16836 C 47.867661,568.16836 47.963121,568.60841 48.535921,568.65036 C 49.108731,568.69227 49.562251,568.50362 49.562251,568.50362 L 49.768111,568.93848 C 49.768111,568.93848 48.258541,569.3722 47.816971,569.57499 C 47.297881,569.81339 45.910621,569.94956 45.910621,569.94956 L 44.765001,570.03338 L 44.645621,568.94369 z"
       id="path3348"
       style="fill:#691714"
       inkscape:export-filename="C:\openanno\openanno\content\gui\images\icons\hud\main\message.png"
       inkscape:export-xdpi="90"
       inkscape:export-ydpi="90" />
    <path
       d="M 52.617251,568.39882 C 52.617251,568.39882 53.022931,567.07861 53.786701,566.68048 C 54.550461,566.28234 55.123261,566.32421 56.054091,566.32421 C 56.984891,566.32421 57.844121,566.47088 58.058901,566.59662 C 58.273701,566.72234 58.369151,566.8481 58.369151,566.8481 C 58.369151,566.8481 58.082811,567.07861 57.820261,567.12049 C 57.557721,567.16237 57.378631,567.25672 57.277241,567.36672 C 57.175841,567.47675 57.008721,568.18929 57.008721,568.18929 C 57.008721,568.18929 57.056431,568.79701 56.650741,569.2371 C 56.245051,569.67716 55.645171,570.13747 54.908471,570.20104 C 53.876201,570.29011 54.091011,570.08579 54.091011,570.08579 L 53.619651,568.92276 L 52.855891,568.77608 L 52.617251,568.39882 z"
       id="path3350"
       style="fill:#96161d"
       inkscape:export-filename="C:\openanno\openanno\content\gui\images\icons\hud\main\message.png"
       inkscape:export-xdpi="90"
       inkscape:export-ydpi="90" />
    <path
       d="M 47.814831,569.69816 C 47.081131,569.68408 46.569261,569.651 46.016001,569.50911 C 45.325331,569.33195 45.150851,569.04817 46.182121,568.89145 C 47.213381,568.73473 48.062281,568.80116 48.062281,568.80116 L 50.231641,568.84807 L 47.814831,569.69816 z"
       id="path3352"
       style="fill:#6b4e2b"
       inkscape:export-filename="C:\openanno\openanno\content\gui\images\icons\hud\main\message.png"
       inkscape:export-xdpi="90"
       inkscape:export-ydpi="90" />
    <path
       d="M 47.958041,569.57243 C 47.224341,569.55896 46.712461,569.52906 46.158911,569.40305 C 45.467981,569.24576 45.292921,568.99512 46.323891,568.85819 C 47.354881,568.72132 48.203831,568.78118 48.203831,568.78118 L 50.373201,568.82563 L 47.958041,569.57243 z"
       id="path3354"
       style="fill:#ac8c55"
       inkscape:export-filename="C:\openanno\openanno\content\gui\images\icons\hud\main\message.png"
       inkscape:export-xdpi="90"
       inkscape:export-ydpi="90" />
    <path
       d="M 56.793941,567.69686 C 56.793941,567.69686 57.824711,567.52214 57.903751,567.28821 C 57.982791,567.05429 57.581541,567.09962 57.223551,567.03674 C 56.865521,566.97387 55.003921,566.84815 54.574311,566.97387 C 54.144701,567.09962 53.607711,567.25679 53.607711,567.25679 L 53.321301,567.28821 L 56.793941,567.69686 z"
       id="path3356"
       style="fill:#ac8c55"
       inkscape:export-filename="C:\openanno\openanno\content\gui\images\icons\hud\main\message.png"
       inkscape:export-xdpi="90"
       inkscape:export-ydpi="90" />
    <line
       x1="49.126705"
       y1="568.78131"
       x2="49.126705"
       y2="569.16364"
       id="line3358"
       style="fill:none;stroke:#8c6631;stroke-width:0.0670919;stroke-linecap:round"
       inkscape:export-filename="C:\openanno\openanno\content\gui\images\icons\hud\main\message.png"
       inkscape:export-xdpi="90"
       inkscape:export-ydpi="90" />
    <line
       x1="48.583752"
       y1="568.83362"
       x2="48.583752"
       y2="569.37848"
       id="line3360"
       style="fill:none;stroke:#8c6631;stroke-width:0.0670919;stroke-linecap:round"
       inkscape:export-filename="C:\openanno\openanno\content\gui\images\icons\hud\main\message.png"
       inkscape:export-xdpi="90"
       inkscape:export-ydpi="90" />
    <line
       x1="49.639874"
       y1="568.67126"
       x2="49.639874"
       y2="569.06415"
       id="line3362"
       style="fill:none;stroke:#8c6631;stroke-width:0.0670919;stroke-linecap:round"
       inkscape:export-filename="C:\openanno\openanno\content\gui\images\icons\hud\main\message.png"
       inkscape:export-xdpi="90"
       inkscape:export-ydpi="90" />
    <line
       x1="51.608822"
       y1="568.53497"
       x2="51.608822"
       y2="568.84412"
       id="line3364"
       style="fill:none;stroke:#8c6631;stroke-width:0.13418379;stroke-linecap:round"
       inkscape:export-filename="C:\openanno\openanno\content\gui\images\icons\hud\main\message.png"
       inkscape:export-xdpi="90"
       inkscape:export-ydpi="90" />
    <line
       x1="48.016903"
       y1="568.85449"
       x2="48.016903"
       y2="569.49365"
       id="line3366"
       style="fill:none;stroke:#8c6631;stroke-width:0.0670919;stroke-linecap:round"
       inkscape:export-filename="C:\openanno\openanno\content\gui\images\icons\hud\main\message.png"
       inkscape:export-xdpi="90"
       inkscape:export-ydpi="90" />
    <path
       d="M 47.681301,569.5415 C 48.262401,569.35742 48.881251,569.14298 49.204251,569.04842 C 49.777051,568.88076 51.065931,568.71315 51.471631,568.71315 C 51.877321,568.71315 52.951341,568.71315 53.285491,568.7551 C 53.619651,568.79701 53.762861,568.88082 53.786701,569.00655 C 53.810531,569.13229 53.882141,569.65615 54.001511,569.88669 C 54.120861,570.11723 54.264061,570.20104 54.264061,570.20104 L 54.073101,570.41057 L 53.750901,569.73996 L 53.190051,569.73996 L 51.972821,569.94949 C 51.972821,569.94949 49.991851,570.28477 48.870151,570.64104 C 47.748461,570.99731 46.745961,571.45831 46.340281,571.53168 C 45.934591,571.60503 45.481071,571.58404 45.146921,571.50024 C 44.812761,571.41644 44.979871,571.43737 44.979871,571.43737 C 44.979871,571.43737 44.384001,570.50995 44.460841,569.8447 C 44.460841,569.8447 45.228411,570.05487 45.276151,569.84532 C 45.323901,569.63579 45.337861,569.53042 45.337861,569.53042 L 45.839081,569.5095 L 45.910681,569.94956 C 45.910681,569.94956 45.982281,569.92864 46.555081,569.84476 C 46.804821,569.80822 47.231711,569.68395 47.681301,569.5415"
       id="path3368"
       style="fill:#d1bb6f"
       inkscape:export-filename="C:\openanno\openanno\content\gui\images\icons\hud\main\message.png"
       inkscape:export-xdpi="90"
       inkscape:export-ydpi="90" />
    <path
       d="M 44.574031,570.26389 C 44.574031,570.26389 45.815101,570.55729 47.390321,570.07529 C 48.965521,569.5933 49.681551,569.38375 50.445311,569.21609 C 51.209071,569.04842 52.283001,568.81788 52.521731,568.85983 C 52.760441,568.90175 53.046841,568.83889 53.333241,568.94362 C 53.619651,569.04836 53.745671,569.69658 53.769511,569.78038 L 53.643511,569.78182 C 52.974811,569.80277 52.985341,569.80095 51.352261,570.09616 C 49.729311,570.38956 47.652871,571.12297 47.199431,571.2697 C 46.745961,571.41644 46.456561,571.56831 45.910621,571.60498 C 45.364651,571.64161 44.979791,571.43732 44.979791,571.43732 C 44.979791,571.43732 44.621791,570.78769 44.597961,570.5991 C 44.574101,570.4105 44.574031,570.26389 44.574031,570.26389 z"
       id="path3370"
       style="fill:#cea665"
       inkscape:export-filename="C:\openanno\openanno\content\gui\images\icons\hud\main\message.png"
       inkscape:export-xdpi="90"
       inkscape:export-ydpi="90" />
    <path
       d="M 44.979791,571.4749 C 44.979791,571.4749 44.607531,570.72283 44.537881,570.49657 C 44.468211,570.27031 44.460771,569.84476 44.460771,569.84476 C 44.460771,569.84476 44.798851,570.14155 45.117621,570.14539 C 45.819681,570.1538 45.838991,569.5095 45.838991,569.5095 L 45.996231,570.32634 L 46.307571,570.31488 L 46.572981,571.49236 C 46.572981,571.49236 45.985301,571.61811 45.865931,571.61811 C 45.746561,571.61811 45.400521,571.57881 45.400521,571.57881 L 44.979791,571.4749 z"
       id="path3372"
       style="opacity:0.65;fill:#523c26"
       inkscape:export-filename="C:\openanno\openanno\content\gui\images\icons\hud\main\message.png"
       inkscape:export-xdpi="90"
       inkscape:export-ydpi="90" />
    <path
       d="M 45.582041,569.53665 L 39.686931,565.99511 C 39.686931,565.99511 39.543721,566.1837 40.307491,566.68665 C 41.071241,567.18958 44.985381,569.80904 44.985381,569.80904 C 44.985381,569.80904 45.391141,569.89285 45.486581,569.76711 C 45.582041,569.64139 45.582041,569.53665 45.582041,569.53665 z"
       id="path3374"
       style="fill:#95724b"
       inkscape:export-filename="C:\openanno\openanno\content\gui\images\icons\hud\main\message.png"
       inkscape:export-xdpi="90"
       inkscape:export-ydpi="90" />
    <path
       d="M 44.886861,569.90052 C 44.886861,569.90052 45.277221,570.08656 45.412481,569.89354 C 45.619981,569.59743 45.337791,569.5305 45.337791,569.5305 L 45.146851,569.65621 C 45.146851,569.65621 44.932051,569.59336 44.836591,569.50955 C 44.741141,569.42574 44.693391,569.19522 44.693391,569.19522 L 44.860431,569.11141 L 44.597881,568.96475 C 44.597881,568.96475 44.741081,569.27908 44.621721,569.23715 C 44.502361,569.19522 43.953471,569.06949 43.953471,568.92282 C 43.953471,568.77614 43.881881,568.48275 43.881881,568.48275 L 43.810261,568.44082 C 43.810261,568.44082 43.834111,568.62943 43.738671,568.65036 C 43.643211,568.67129 43.261301,568.65036 43.165851,568.41982 C 43.070421,568.18929 42.998821,568.0217 42.998821,568.0217 L 42.974961,567.95882 C 42.974961,567.95882 42.927211,568.08454 42.784021,568.08454 C 42.640811,568.08454 42.449851,567.95882 42.449851,567.95882 L 42.139611,567.72828 L 41.948651,567.58161 L 41.686091,567.58161 L 44.433271,569.48811 L 44.886861,569.90052 z"
       id="path3376"
       style="fill:#523c26"
       inkscape:export-filename="C:\openanno\openanno\content\gui\images\icons\hud\main\message.png"
       inkscape:export-xdpi="90"
       inkscape:export-ydpi="90" />
    <path
       d="M 45.457081,570.68302 L 45.540641,571.2279 L 45.075241,571.18595 L 44.836591,570.62017 C 44.836591,570.62017 45.194531,570.74589 45.457081,570.68302 z"
       id="path3378"
       inkscape:export-filename="C:\openanno\openanno\content\gui\images\icons\hud\main\message.png"
       inkscape:export-xdpi="90"
       inkscape:export-ydpi="90" />
    <path
       d="M 45.767411,571.2174 L 45.695801,570.70395 L 46.543051,570.62017 L 46.614651,571.10216 C 46.614651,571.10216 46.483411,571.18595 46.220861,571.20696 C 45.958301,571.22797 45.767411,571.2174 45.767411,571.2174 z"
       id="path3380"
       inkscape:export-filename="C:\openanno\openanno\content\gui\images\icons\hud\main\message.png"
       inkscape:export-xdpi="90"
       inkscape:export-ydpi="90" />
    <polygon
       transform="matrix(7.1600775e-2,0,0,6.2866835e-2,39.676261,557.69053)"
       points="98.737,205.333 108.737,201.333 110.404,209 99.904,212.5 98.737,205.333 "
       id="polygon3382"
       inkscape:export-filename="C:\openanno\openanno\content\gui\images\icons\hud\main\message.png"
       inkscape:export-xdpi="90"
       inkscape:export-ydpi="90" />
    <polygon
       transform="matrix(7.1600775e-2,0,0,6.2866835e-2,39.676261,557.69053)"
       points="112.071,200.333 124.071,196 125.737,203.333 114.071,207.333 112.071,200.333 "
       id="polygon3384"
       inkscape:export-filename="C:\openanno\openanno\content\gui\images\icons\hud\main\message.png"
       inkscape:export-xdpi="90"
       inkscape:export-ydpi="90" />
    <polygon
       transform="matrix(7.1600775e-2,0,0,6.2866835e-2,39.676261,557.69053)"
       points="131.738,193 137.738,191 139.571,198.667 128.571,202.667 126.238,195 131.738,193 "
       id="polygon3386"
       inkscape:export-filename="C:\openanno\openanno\content\gui\images\icons\hud\main\message.png"
       inkscape:export-xdpi="90"
       inkscape:export-ydpi="90" />
    <polygon
       transform="matrix(7.1600775e-2,0,0,6.2866835e-2,39.676261,557.69053)"
       points="140.904,190.333 152.404,187.333 153.738,194.5 142.738,197.667 140.904,190.333 "
       id="polygon3388"
       inkscape:export-filename="C:\openanno\openanno\content\gui\images\icons\hud\main\message.png"
       inkscape:export-xdpi="90"
       inkscape:export-ydpi="90" />
    <polygon
       transform="matrix(7.1600775e-2,0,0,6.2866835e-2,39.676261,557.69053)"
       points="155.071,186.667 163.071,184.667 164.071,192 156.238,193.5 155.071,186.667 "
       id="polygon3390"
       inkscape:export-filename="C:\openanno\openanno\content\gui\images\icons\hud\main\message.png"
       inkscape:export-xdpi="90"
       inkscape:export-ydpi="90" />
    <polygon
       transform="matrix(7.1600775e-2,0,0,6.2866835e-2,39.676261,557.69053)"
       points="165.406,184.167 173.072,182.833 174.239,190.333 166.571,191.333 165.406,184.167 "
       id="polygon3392"
       inkscape:export-filename="C:\openanno\openanno\content\gui\images\icons\hud\main\message.png"
       inkscape:export-xdpi="90"
       inkscape:export-ydpi="90" />
    <polygon
       transform="matrix(7.1600775e-2,0,0,6.2866835e-2,39.676261,557.69053)"
       points="175.405,183 183.571,182.333 184.571,189.167 176.571,190 175.405,183 "
       id="polygon3394"
       inkscape:export-filename="C:\openanno\openanno\content\gui\images\icons\hud\main\message.png"
       inkscape:export-xdpi="90"
       inkscape:export-ydpi="90" />
    <polygon
       transform="matrix(7.1600775e-2,0,0,6.2866835e-2,39.676261,557.69053)"
       points="185.571,182.417 190.738,182.333 192.571,182.333 194.404,188.667 186.738,189 185.571,182.417 "
       id="polygon3396"
       inkscape:export-filename="C:\openanno\openanno\content\gui\images\icons\hud\main\message.png"
       inkscape:export-xdpi="90"
       inkscape:export-ydpi="90" />
    <path
       d="M 47.724481,567.91688 C 47.724481,567.91688 46.680341,567.93781 45.785301,568.27051 C 45.137891,568.51116 44.883501,568.66306 44.675491,568.89133 C 44.639691,568.93061 44.609831,568.95681 44.609831,568.95681 L 44.860431,569.11135 C 44.860431,569.11135 45.275151,568.67129 45.767411,568.48268 C 46.259661,568.29409 47.825941,568.08454 47.825941,568.08454 L 47.724481,567.91688 z"
       id="path3398"
       style="fill:#d1bb6f"
       inkscape:export-filename="C:\openanno\openanno\content\gui\images\icons\hud\main\message.png"
       inkscape:export-xdpi="90"
       inkscape:export-ydpi="90" />
    <path
       d="M 54.264061,570.20104 C 54.264061,570.20104 55.272421,570.29011 55.934721,569.83432 C 56.597041,569.37854 56.847631,569.00134 56.883431,568.76558 C 56.919251,568.52983 57.026631,568.01118 57.026631,568.01118 L 57.259341,568.04262 C 57.259341,568.04262 57.176501,569.43934 56.116151,569.96257 C 55.136651,570.44589 55.082241,570.4088 54.681711,570.44726 C 54.164471,570.49701 54.073101,570.41063 54.073101,570.41063 L 54.264061,570.20104 z"
       id="path3400"
       style="fill:#cea665"
       inkscape:export-filename="C:\openanno\openanno\content\gui\images\icons\hud\main\message.png"
       inkscape:export-xdpi="90"
       inkscape:export-ydpi="90" />
    <polygon
       transform="matrix(7.1600775e-2,0,0,6.2866835e-2,39.676261,557.69053)"
       points="174.405,0 178.071,0.333 187.738,172.333 188.404,175.833 169.246,175.261 174.405,0 "
       id="polygon3402"
       style="fill:#694e30"
       inkscape:export-filename="C:\openanno\openanno\content\gui\images\icons\hud\main\message.png"
       inkscape:export-xdpi="90"
       inkscape:export-ydpi="90" />
    <polygon
       transform="matrix(7.1600775e-2,0,0,6.2866835e-2,39.676261,557.69053)"
       points="200.405,29 152.738,40.333 151.738,43 200.738,31.667 201.405,29.667 200.405,29 "
       id="polygon3404"
       style="fill:#694e30"
       inkscape:export-filename="C:\openanno\openanno\content\gui\images\icons\hud\main\message.png"
       inkscape:export-xdpi="90"
       inkscape:export-ydpi="90" />
    <path
       d="M 58.297561,567.82259 C 58.297561,567.82259 58.494171,567.5749 58.404941,567.20963 C 58.359061,567.02191 58.369151,566.84815 58.369151,566.84815 C 58.369151,566.84815 58.178201,567.00727 57.982791,567.05429 C 57.404051,567.19354 57.456261,567.1782 57.277241,567.36681 C 57.098251,567.5554 57.026631,568.01118 57.026631,568.01118 L 57.173201,568.03181 L 57.259341,568.04262 L 58.297561,567.82259 z"
       id="path3406"
       style="fill:#8c6631"
       inkscape:export-filename="C:\openanno\openanno\content\gui\images\icons\hud\main\message.png"
       inkscape:export-xdpi="90"
       inkscape:export-ydpi="90" />
    <polygon
       transform="matrix(7.1600775e-2,0,0,6.2866835e-2,39.676261,557.69053)"
       points="233.071,103.167 206.821,104.167 205.821,107.417 230.071,105.667 232.571,104.917 233.071,103.167 "
       id="polygon3408"
       style="fill:#694e30"
       inkscape:export-filename="C:\openanno\openanno\content\gui\images\icons\hud\main\message.png"
       inkscape:export-xdpi="90"
       inkscape:export-ydpi="90" />
    <polygon
       transform="matrix(7.1600775e-2,0,0,6.2866835e-2,39.676261,557.69053)"
       points="224.571,76.667 197.821,79.417 197.821,80.417 199.571,80.917 224.321,78.667 224.571,76.667 "
       id="polygon3410"
       style="fill:#694e30"
       inkscape:export-filename="C:\openanno\openanno\content\gui\images\icons\hud\main\message.png"
       inkscape:export-xdpi="90"
       inkscape:export-ydpi="90" />
    <path
       d="M 51.686431,562.42646 L 52.925841,562.40554 L 52.880811,562.53128 L 52.768111,562.59413 C 52.768111,562.59413 52.587881,562.53128 52.475191,562.53128 C 52.362481,562.53128 52.024391,562.5522 52.024391,562.63607 C 52.024391,562.71993 51.911751,562.71987 51.911751,562.71987 L 51.686431,562.42646 z"
       id="path3412"
       inkscape:export-filename="C:\openanno\openanno\content\gui\images\icons\hud\main\message.png"
       inkscape:export-xdpi="90"
       inkscape:export-ydpi="90" />
    <path
       d="M 53.840401,569.20565 C 53.840401,569.20565 54.592211,570.07008 55.039721,569.99149 C 55.487211,569.91291 56.328521,569.59857 56.543331,569.11135 C 56.758141,568.62413 56.543331,568.37268 56.543331,568.37268 C 56.543331,568.37268 54.037301,568.08977 53.697191,568.04262 C 53.357091,567.99546 53.088591,567.80687 53.088591,567.80687 L 53.106491,567.5554 L 53.965691,567.24107 C 53.965691,567.24107 55.290311,567.2725 55.898911,567.38251 C 56.507531,567.49253 57.151941,567.53968 57.151941,567.53968 C 57.151941,567.53968 56.955041,568.60841 56.829731,568.93848 C 56.704431,569.26852 56.131631,569.75573 55.576721,570.00721 C 55.021811,570.25868 54.264061,570.20104 54.264061,570.20104 C 54.264061,570.20104 53.965691,569.97578 53.912011,569.69288 C 53.858291,569.40998 53.840401,569.20565 53.840401,569.20565 z"
       id="path3414"
       style="fill:#660d12"
       inkscape:export-filename="C:\openanno\openanno\content\gui\images\icons\hud\main\message.png"
       inkscape:export-xdpi="90"
       inkscape:export-ydpi="90" />
    <polygon
       transform="matrix(7.1600775e-2,0,0,6.2866835e-2,39.676261,557.69053)"
       points="178.071,0.333 188.404,175.833 179.924,175.247 176.091,0.211 178.071,0.333 "
       id="polygon3416"
       style="fill:#543a1e"
       inkscape:export-filename="C:\openanno\openanno\content\gui\images\icons\hud\main\message.png"
       inkscape:export-xdpi="90"
       inkscape:export-ydpi="90" />
    <path
       d="M 54.735411,561.47304 L 54.896521,561.47304 L 55.182911,567.97975 C 55.182911,567.97975 55.003921,568.02689 54.824901,568.02689 C 54.645901,568.02689 54.449011,567.97975 54.449011,567.97975 L 54.735411,561.47304 z"
       id="path3418"
       style="fill:#694e30"
       inkscape:export-filename="C:\openanno\openanno\content\gui\images\icons\hud\main\message.png"
       inkscape:export-xdpi="90"
       inkscape:export-ydpi="90" />
    <g
       transform="matrix(7.1600775e-2,0,0,6.2866835e-2,39.676261,557.69053)"
       id="Ebene_3"
       inkscape:export-filename="C:\openanno\openanno\content\gui\images\icons\hud\main\message.png"
       inkscape:export-xdpi="90"
       inkscape:export-ydpi="90">
	<path
   d="M 187.321,160.917 C 187.321,160.917 190.571,163.792 196.946,164.792 C 203.321,165.792 223.321,168.417 223.321,168.417 L 235.696,170.292 C 235.696,170.292 246.03,174.042 231.238,186.917 C 223.016,194.073 218.946,193.667 218.946,193.667 L 195.946,177.917 C 195.946,177.917 192.071,176.334 191.071,176.167 C 190.071,176 187.946,175.667 187.946,175.667 L 187.321,160.917 z"
   id="path3421"
   style="fill:#ac8c55" />

	<path
   d="M 227.711,178.837 C 227.711,178.837 235.152,174.832 236.653,173.833 C 237.904,173 241.404,171.416 242.487,166.083 C 243.038,163.373 242.587,166.763 242.987,161.583 L 243.487,158.25 L 244.07,156.667 L 241.821,156.334 L 226.237,177.084 L 227.711,178.837 z"
   id="path3423"
   style="fill:#735428" />

	<polygon
   points="232.842,155.291 232.889,157.755 231.39,157.755 231.39,159.663 229.618,159.663 229.618,161.844 228.255,161.844 228.255,164.025 226.892,164.025 226.892,166.615 225.393,166.615 225.393,168.659 223.757,168.659 223.757,170.84 222.257,170.84 222.257,172.476 220.349,172.476 220.349,175.338 218.441,175.338 218.441,177.246 227.711,178.837 227.711,176.929 229.62,176.929 229.62,174.067 231.528,174.067 231.528,172.431 233.028,172.431 233.028,170.25 234.664,170.25 234.664,168.206 236.163,168.206 236.163,165.616 237.526,165.616 237.526,163.435 238.888,163.435 238.888,161.254 240.661,161.254 240.661,159.346 242.16,159.346 242.113,156.882 232.842,155.291 "
   id="polygon3425"
   style="fill:#9d7236;stroke:#59421f;stroke-width:0.5" />

	<line
   x1="227.711"
   y1="176.929"
   x2="218.44099"
   y2="175.338"
   id="line3427"
   style="fill:none;stroke:#5a3d1c;stroke-width:0.5" />

	<line
   x1="229.623"
   y1="174.78999"
   x2="220.35201"
   y2="173.19901"
   id="line3429"
   style="fill:none;stroke:#5a3d1c;stroke-width:0.5" />

	<line
   x1="242.162"
   y1="159.11501"
   x2="232.89101"
   y2="157.524"
   id="line3431"
   style="fill:none;stroke:#5a3d1c;stroke-width:0.5" />

	<line
   x1="231.53101"
   y1="173.97301"
   x2="222.25999"
   y2="172.381"
   id="line3433"
   style="fill:none;stroke:#5a3d1c;stroke-width:0.5" />

	<line
   x1="231.66701"
   y1="172.47301"
   x2="222.396"
   y2="170.882"
   id="line3435"
   style="fill:none;stroke:#5a3d1c;stroke-width:0.5" />

	<line
   x1="233.03"
   y1="172.064"
   x2="223.759"
   y2="170.47301"
   id="line3437"
   style="fill:none;stroke:#5a3d1c;stroke-width:0.5" />

	<line
   x1="233.03"
   y1="170.29201"
   x2="223.759"
   y2="168.701"
   id="line3439"
   style="fill:none;stroke:#5a3d1c;stroke-width:0.5" />

	<line
   x1="234.392"
   y1="169.883"
   x2="225.12199"
   y2="168.29201"
   id="line3441"
   style="fill:none;stroke:#5a3d1c;stroke-width:0.5" />

	<line
   x1="234.80099"
   y1="168.248"
   x2="225.53101"
   y2="166.65601"
   id="line3443"
   style="fill:none;stroke:#5a3d1c;stroke-width:0.5" />

	<line
   x1="236.02901"
   y1="167.97501"
   x2="226.758"
   y2="166.383"
   id="line3445"
   style="fill:none;stroke:#5a3d1c;stroke-width:0.25" />

	<line
   x1="236.02901"
   y1="165.79401"
   x2="226.758"
   y2="164.203"
   id="line3447"
   style="fill:none;stroke:#5a3d1c;stroke-width:0.5" />

	<line
   x1="237.528"
   y1="165.24899"
   x2="228.257"
   y2="163.658"
   id="line3449"
   style="fill:none;stroke:#5a3d1c;stroke-width:0.5" />

	<line
   x1="237.39101"
   y1="163.614"
   x2="228.121"
   y2="162.022"
   id="line3451"
   style="fill:none;stroke:#5a3d1c;stroke-width:0.5" />

	<line
   x1="238.754"
   y1="163.20399"
   x2="229.48399"
   y2="161.61301"
   id="line3453"
   style="fill:none;stroke:#5a3d1c;stroke-width:0.5" />

	<line
   x1="238.89"
   y1="161.433"
   x2="229.62"
   y2="159.841"
   id="line3455"
   style="fill:none;stroke:#5a3d1c;stroke-width:0.5" />

	<line
   x1="240.66299"
   y1="159.388"
   x2="231.392"
   y2="157.797"
   id="line3457"
   style="fill:none;stroke:#5a3d1c;stroke-width:0.5" />

	<ellipse
   cx="220.356"
   cy="160.47701"
   rx="2.312"
   ry="6.1430001"
   id="ellipse3459"
   sodipodi:cx="220.356"
   sodipodi:cy="160.47701"
   sodipodi:rx="2.312"
   sodipodi:ry="6.1430001"
   style="stroke:#59421f;stroke-width:0.5" />

	<g
   id="g3461">
		<ellipse
   cx="226.59801"
   cy="159.799"
   rx="2.0669999"
   ry="2.5650001"
   id="ellipse3463"
   sodipodi:cx="226.59801"
   sodipodi:cy="159.799"
   sodipodi:rx="2.0669999"
   sodipodi:ry="2.5650001"
   style="stroke:#9e7846;stroke-width:0.25" />

		<line
   x1="224.399"
   y1="159.479"
   x2="228.62601"
   y2="160.271"
   id="line3465"
   style="fill:none;stroke:#9e7846;stroke-width:0.25" />

		<line
   x1="226.59801"
   y1="157.233"
   x2="226.59801"
   y2="162.364"
   id="line3467"
   style="fill:none;stroke:#9e7846;stroke-width:0.25" />

	</g>

</g>
    <line
       x1="55.576229"
       y1="569.79993"
       x2="54.287411"
       y2="567.70435"
       id="line3469"
       style="fill:none;stroke:#3f3f3f;stroke-width:0.0670919"
       inkscape:export-filename="C:\openanno\openanno\content\gui\images\icons\hud\main\message.png"
       inkscape:export-xdpi="90"
       inkscape:export-ydpi="90" />
    <line
       x1="54.356075"
       y1="567.65222"
       x2="55.751308"
       y2="569.73553"
       id="line3471"
       style="fill:none;stroke:#3f3f3f;stroke-width:0.0670919"
       inkscape:export-filename="C:\openanno\openanno\content\gui\images\icons\hud\main\message.png"
       inkscape:export-xdpi="90"
       inkscape:export-ydpi="90" />
    <line
       x1="54.427181"
       y1="567.61322"
       x2="55.893475"
       y2="569.66534"
       id="line3473"
       style="fill:none;stroke:#3f3f3f;stroke-width:0.0670919"
       inkscape:export-filename="C:\openanno\openanno\content\gui\images\icons\hud\main\message.png"
       inkscape:export-xdpi="90"
       inkscape:export-ydpi="90" />
    <line
       x1="54.489407"
       y1="567.60553"
       x2="55.991207"
       y2="569.60291"
       id="line3475"
       style="fill:none;stroke:#3f3f3f;stroke-width:0.0670919"
       inkscape:export-filename="C:\openanno\openanno\content\gui\images\icons\hud\main\message.png"
       inkscape:export-xdpi="90"
       inkscape:export-ydpi="90" />
    <line
       x1="50.694897"
       y1="568.40918"
       x2="50.917095"
       y2="567.23096"
       id="line3477"
       style="fill:none;stroke:#3f3f3f;stroke-width:0.0670919"
       inkscape:export-filename="C:\openanno\openanno\content\gui\images\icons\hud\main\message.png"
       inkscape:export-xdpi="90"
       inkscape:export-ydpi="90" />
    <line
       x1="50.899288"
       y1="568.37799"
       x2="51.014812"
       y2="567.18402"
       id="line3479"
       style="fill:none;stroke:#3f3f3f;stroke-width:0.0670919"
       inkscape:export-filename="C:\openanno\openanno\content\gui\images\icons\hud\main\message.png"
       inkscape:export-xdpi="90"
       inkscape:export-ydpi="90" />
    <line
       x1="51.10368"
       y1="568.31549"
       x2="51.05035"
       y2="567.16852"
       id="line3481"
       style="fill:none;stroke:#3f3f3f;stroke-width:0.0670919"
       inkscape:export-filename="C:\openanno\openanno\content\gui\images\icons\hud\main\message.png"
       inkscape:export-xdpi="90"
       inkscape:export-ydpi="90" />
    <line
       x1="51.130291"
       y1="567.13727"
       x2="51.281399"
       y2="568.27637"
       id="line3483"
       style="fill:none;stroke:#3f3f3f;stroke-width:0.0670919"
       inkscape:export-filename="C:\openanno\openanno\content\gui\images\icons\hud\main\message.png"
       inkscape:export-xdpi="90"
       inkscape:export-ydpi="90" />
    <path
       d="M 55.737831,562.63607 C 55.737831,562.63607 55.576721,563.61049 55.308221,563.68908 C 55.039721,563.76766 54.413211,563.78338 54.413211,563.78338 C 54.413211,563.78338 53.786701,563.81482 53.840401,562.74608 L 55.737831,562.63607 z"
       id="path3498"
       style="fill:url(#XMLID_22_);stroke:#8c8c8c;stroke-width:0.03354594"
       inkscape:export-filename="C:\openanno\openanno\content\gui\images\icons\hud\main\message.png"
       inkscape:export-xdpi="90"
       inkscape:export-ydpi="90" />
    <path
       d="M 56.274831,564.33347 L 53.894111,564.49064 L 53.410791,566.09374 L 56.471711,565.99945 C 56.471711,565.99945 55.666231,565.15073 56.274831,564.33347 z"
       id="path3513"
       style="fill:url(#XMLID_23_);stroke:#8c8c8c;stroke-width:0.03354594"
       inkscape:export-filename="C:\openanno\openanno\content\gui\images\icons\hud\main\message.png"
       inkscape:export-xdpi="90"
       inkscape:export-ydpi="90" />
    <path
       d="M 54.741431,567.87496 C 54.741431,567.87496 54.311821,565.63268 54.526621,564.62681 C 54.741431,563.62093 54.813021,563.18086 54.813021,563.18086 L 50.135081,563.45327 C 50.135081,563.45327 48.798561,565.21355 49.395211,567.30909 C 49.395211,567.30909 50.278331,567.35101 51.089791,567.35101 C 51.901241,567.35101 52.760441,567.22528 53.333241,567.47675 C 53.906051,567.72822 54.645901,567.97969 54.645901,567.97969 L 54.741431,567.87496 z"
       id="path3528"
       style="fill:url(#XMLID_24_);stroke:#8c8c8c;stroke-width:0.03354594"
       inkscape:export-filename="C:\openanno\openanno\content\gui\images\icons\hud\main\message.png"
       inkscape:export-xdpi="90"
       inkscape:export-ydpi="90" />
    <path
       d="M 54.741431,567.87496 C 54.741431,567.87496 54.311821,565.63268 54.526621,564.62681 C 54.741431,563.62093 54.813021,563.18086 54.813021,563.18086 L 50.135081,563.45327 C 50.135081,563.45327 48.798561,565.21355 49.395211,567.30909 C 49.395211,567.30909 50.278331,567.35101 51.089791,567.35101 C 51.901241,567.35101 52.760441,567.22528 53.333241,567.47675 C 53.906051,567.72822 54.645901,567.97969 54.645901,567.97969 L 54.741431,567.87496 z"
       id="path3545"
       style="opacity:0.67000002;fill:url(#XMLID_25_);stroke:#8c8c8c;stroke-width:0.03354594"
       inkscape:export-filename="C:\openanno\openanno\content\gui\images\icons\hud\main\message.png"
       inkscape:export-xdpi="90"
       inkscape:export-ydpi="90" />
    <polygon
       transform="matrix(7.1600775e-2,0,0,6.2866835e-2,39.676261,557.69053)"
       points="216.738,82 149.738,89 147.404,88.667 147.071,92.333 216.405,86.333 216.738,82 "
       id="polygon3547"
       style="fill:#694e30"
       inkscape:export-filename="C:\openanno\openanno\content\gui\images\icons\hud\main\message.png"
       inkscape:export-xdpi="90"
       inkscape:export-ydpi="90" />
    <path
       d="M 49.562251,568.50362 L 49.610001,557.94199 L 49.705441,557.69053 L 49.872491,557.73245 L 50.373701,568.46175 L 50.827161,568.44082 L 50.851001,568.75516 C 50.851001,568.75516 49.884381,568.87038 49.741191,568.93325 L 49.562251,568.50362 z"
       id="path3549"
       style="fill:#694e30"
       inkscape:export-filename="C:\openanno\openanno\content\gui\images\icons\hud\main\message.png"
       inkscape:export-xdpi="90"
       inkscape:export-ydpi="90" />
    <path
       d="M 50.475661,568.58315 L 50.504951,568.46175 L 51.820401,568.13258 L 51.794401,568.70869 C 51.794401,568.70869 51.216231,568.73718 50.768011,568.77143 C 50.319791,568.8057 50.475661,568.58315 50.475661,568.58315 z"
       id="path3551"
       style="fill:#691714"
       inkscape:export-filename="C:\openanno\openanno\content\gui\images\icons\hud\main\message.png"
       inkscape:export-xdpi="90"
       inkscape:export-ydpi="90" />
    <path
       d="M 50.269521,563.72574 C 50.188461,563.72574 50.269521,563.47427 50.269521,563.47427 L 50.305971,563.05514 L 50.197911,563.05514 L 50.197911,562.61507 L 50.170861,562.2798 L 50.305891,562.00741 C 50.305891,562.00741 50.413951,561.98646 50.143791,561.90259 C 49.873641,561.81881 49.981681,561.63019 49.981681,561.63019 L 49.828321,561.57071 L 49.828321,561.56734 L 49.823951,561.56902 L 49.819581,561.56734 L 49.819581,561.57071 L 49.666201,561.63019 C 49.666201,561.63019 49.774271,561.81881 49.504101,561.90259 C 49.233971,561.98639 49.342011,562.00741 49.342011,562.00741 L 49.477121,562.2798 L 49.450131,562.61507 L 49.450131,563.05514 L 49.342081,563.05514 L 49.450131,563.47427 C 49.450131,563.47427 49.531181,563.78859 49.450131,563.78859 C 49.369081,563.78859 49.224571,563.95627 49.224571,563.95627 L 50.566671,563.89339 C 50.566671,563.89339 50.350571,563.72574 50.269521,563.72574 z"
       id="path3553"
       style="fill:#5b3f23"
       inkscape:export-filename="C:\openanno\openanno\content\gui\images\icons\hud\main\message.png"
       inkscape:export-xdpi="90"
       inkscape:export-ydpi="90" />
    <polygon
       transform="matrix(7.1600775e-2,0,0,6.2866835e-2,39.676261,557.69053)"
       points="142.404,0.667 149.404,171.333 151.237,171.333 153.25,176.498 146.201,177.519 140.071,0 142.404,0.667 "
       id="polygon3555"
       style="fill:#4d351b"
       inkscape:export-filename="C:\openanno\openanno\content\gui\images\icons\hud\main\message.png"
       inkscape:export-xdpi="90"
       inkscape:export-ydpi="90" />
    <path
       d="M 47.581281,564.24961 C 47.581281,564.24961 51.925081,564.08194 51.996671,564.061 C 52.068281,564.04007 52.092201,563.83048 52.092201,563.83048 L 51.996671,563.74667 L 47.748381,563.99813 L 47.557431,564.01907 L 47.485811,564.12387 L 47.581281,564.24961 z"
       id="path3557"
       style="fill:#694e30"
       inkscape:export-filename="C:\openanno\openanno\content\gui\images\icons\hud\main\message.png"
       inkscape:export-xdpi="90"
       inkscape:export-ydpi="90" />
    <polygon
       transform="matrix(7.1600775e-2,0,0,6.2866835e-2,39.676261,557.69053)"
       points="160.405,25.667 122.738,33 120.404,34.333 121.404,36 124.404,36 156.738,29 159.738,28 160.405,25.667 "
       id="polygon3559"
       style="fill:#694e30"
       inkscape:export-filename="C:\openanno\openanno\content\gui\images\icons\hud\main\message.png"
       inkscape:export-xdpi="90"
       inkscape:export-ydpi="90" />
    <path
       d="M 53.977671,559.61845 C 53.977671,559.61845 53.985391,560.91905 53.715091,561.29493 C 53.643511,561.39446 53.548061,561.54117 53.548061,561.54117 C 53.548061,561.54117 53.494351,561.62498 53.309411,561.75599 C 53.118171,561.89147 52.855891,561.77693 52.855891,561.77693 L 52.760441,561.67212 C 52.760441,561.67212 52.808201,561.92361 52.688831,562.00741 C 52.569491,562.09121 52.197891,562.31507 51.901241,562.00741 C 51.769921,561.87116 51.692381,561.85024 51.692381,561.85024 C 51.692381,561.85024 51.765121,562.00936 51.558121,562.0624 C 51.447001,562.09089 51.328421,562.09648 51.185231,561.94976 C 51.042031,561.80301 50.755611,561.31587 50.755611,561.31587 L 50.469231,560.41478 L 53.977671,559.61845 z"
       id="path3574"
       style="fill:url(#XMLID_26_);stroke:#8c8c8c;stroke-width:0.03354594"
       inkscape:export-filename="C:\openanno\openanno\content\gui\images\icons\hud\main\message.png"
       inkscape:export-xdpi="90"
       inkscape:export-ydpi="90" />
    <path
       d="M 47.468781,564.17662 L 52.056381,563.93528 C 52.056381,563.93528 51.467411,566.19772 51.591481,566.37872 C 51.715431,566.55972 48.119701,566.49936 48.119701,566.49936 C 48.119701,566.49936 47.096741,565.98655 47.468781,564.17662 z"
       id="path3589"
       style="fill:url(#XMLID_27_);stroke:#8c8c8c;stroke-width:0.03354594"
       inkscape:export-filename="C:\openanno\openanno\content\gui\images\icons\hud\main\message.png"
       inkscape:export-xdpi="90"
       inkscape:export-ydpi="90" />
    <path
       d="M 48.440471,559.97466 C 48.440471,559.97466 48.158581,560.96482 48.464321,561.33679 C 48.770061,561.70878 48.949131,561.81482 49.037141,561.81881 C 49.293681,561.79912 49.468241,561.67734 49.468241,561.67734 C 49.468241,561.67734 49.638301,561.72846 49.900121,561.71142 C 50.095121,561.69878 50.103691,561.71268 50.251401,561.57123 C 50.251401,561.57123 50.667631,561.75592 50.852571,561.58305 C 51.028571,561.41852 51.328421,560.79199 51.256821,560.51952 C 51.185231,560.24705 51.042031,559.78607 51.042031,559.78607 L 50.898831,559.51367 L 48.440471,559.97466 z"
       id="path3604"
       style="fill:url(#XMLID_28_);stroke:#8c8c8c;stroke-width:0.03354594"
       inkscape:export-filename="C:\openanno\openanno\content\gui\images\icons\hud\main\message.png"
       inkscape:export-xdpi="90"
       inkscape:export-ydpi="90" />
    <path
       d="M 49.254801,561.88166 C 49.254801,561.88166 49.702301,561.81881 49.826671,561.81881 C 49.950971,561.81881 50.348791,561.90259 50.348791,561.90259 L 50.373631,562.04926 L 50.249321,562.0702 C 50.249321,562.0702 50.100121,562.04926 49.776831,562.04926 C 49.453561,562.04926 49.354181,562.0702 49.354181,562.0702 L 49.254801,561.88166 z"
       id="path3606"
       inkscape:export-filename="C:\openanno\openanno\content\gui\images\icons\hud\main\message.png"
       inkscape:export-xdpi="90"
       inkscape:export-ydpi="90" />
    <path
       d="M 57.259341,568.04262 C 57.259341,568.04262 57.223551,567.43753 57.393591,567.36681 C 57.563641,567.29607 57.962461,567.07818 58.104301,567.01349 C 58.235251,566.95377 58.369151,566.84815 58.369151,566.84815 C 58.369151,566.84815 58.297641,566.7429 58.169681,566.66362 C 58.017451,566.5694 57.805301,566.3845 56.525431,566.32949 C 55.245581,566.27448 55.093411,566.32164 55.093411,566.32164 L 55.093411,566.40023 C 55.093411,566.40023 56.632811,566.31378 57.304101,566.47094 C 57.975351,566.62809 57.818771,566.58361 58.009141,566.67407 C 58.199531,566.76455 58.239121,566.83066 58.239121,566.83066 C 58.239121,566.83066 57.828861,567.04272 57.432401,567.21183 C 57.329361,567.25584 57.160881,567.45323 57.125101,567.60255 C 57.089281,567.75185 57.053491,568.01118 57.053491,568.01118 L 57.259341,568.04262 z"
       id="path3608"
       style="fill:#694e30"
       inkscape:export-filename="C:\openanno\openanno\content\gui\images\icons\hud\main\message.png"
       inkscape:export-xdpi="90"
       inkscape:export-ydpi="90" />
    <path
       d="M 42.402171,578.62513 C 42.402171,578.62513 42.437971,579.03377 41.507151,579.06519 C 40.576341,579.09662 40.540541,578.84517 40.361551,578.65655 C 40.182541,578.46797 40.182541,578.34222 40.182541,578.34222 L 40.970151,577.96501 L 42.402171,577.90217 L 42.402171,578.62513 z"
       id="path3610"
       inkscape:export-filename="C:\openanno\openanno\content\gui\images\icons\hud\main\message.png"
       inkscape:export-xdpi="90"
       inkscape:export-ydpi="90" />
    <path
       d="M 41.614551,578.17784 L 41.614551,578.69717 C 41.614551,578.69717 41.077541,578.69717 40.970151,578.77708 C 40.862761,578.85699 40.934341,578.37761 40.934341,578.37761 L 41.614551,578.17784 z"
       id="path3625"
       style="fill:url(#XMLID_29_)"
       inkscape:export-filename="C:\openanno\openanno\content\gui\images\icons\hud\main\message.png"
       inkscape:export-xdpi="90"
       inkscape:export-ydpi="90" />
    <path
       d="M 40.914091,578.51021 L 40.954971,577.98703 L 42.415411,577.8691 L 42.402171,578.62507 C 42.402171,578.62507 42.151561,578.31072 41.865161,578.27929 C 41.578751,578.24786 41.292351,578.24786 41.184961,578.31072 C 41.077541,578.3736 40.914091,578.51021 40.914091,578.51021 z"
       id="path3640"
       style="fill:url(#XMLID_30_)"
       inkscape:export-filename="C:\openanno\openanno\content\gui\images\icons\hud\main\message.png"
       inkscape:export-xdpi="90"
       inkscape:export-ydpi="90" />
    <ellipse
       transform="matrix(7.1600775e-2,0,0,6.2866835e-2,39.676261,557.69053)"
       cx="20.570999"
       cy="338.99899"
       rx="9.5"
       ry="8.5"
       id="ellipse3647"
       style="fill:url(#XMLID_31_)"
       sodipodi:cx="20.570999"
       sodipodi:cy="338.99899"
       sodipodi:rx="9.5"
       sodipodi:ry="8.5"
       inkscape:export-filename="C:\openanno\openanno\content\gui\images\icons\hud\main\message.png"
       inkscape:export-xdpi="90"
       inkscape:export-ydpi="90" />
    <ellipse
       transform="matrix(7.1600775e-2,0,0,6.2866835e-2,39.676261,557.69053)"
       cx="24.988001"
       cy="253.66701"
       rx="10.583"
       ry="10.5"
       id="ellipse3654"
       style="fill:url(#XMLID_32_)"
       sodipodi:cx="24.988001"
       sodipodi:cy="253.66701"
       sodipodi:rx="10.583"
       sodipodi:ry="10.5"
       inkscape:export-filename="C:\openanno\openanno\content\gui\images\icons\hud\main\message.png"
       inkscape:export-xdpi="90"
       inkscape:export-ydpi="90" />
    <path
       d="M 41.757761,573.85781 C 41.750461,573.74057 41.729561,573.68699 41.505011,573.66216 C 41.280461,573.63734 41.177221,573.75791 41.184961,573.79494 C 41.192681,573.83198 41.184961,574.26645 41.184961,574.26645 L 41.757901,574.2107 C 41.757901,574.21063 41.765061,573.97505 41.757761,573.85781 z"
       id="path3669"
       style="fill:url(#XMLID_33_)"
       inkscape:export-filename="C:\openanno\openanno\content\gui\images\icons\hud\main\message.png"
       inkscape:export-xdpi="90"
       inkscape:export-ydpi="90" />
    <path
       d="M 58.631641,573.66921 C 58.631641,573.66921 58.595841,573.26057 59.526651,573.22915 C 60.457461,573.19771 60.520891,573.43993 60.699901,573.62853 C 60.878901,573.81714 60.873541,573.94826 60.873541,573.94826 L 60.063661,574.32932 L 58.631641,574.39217 L 58.631641,573.66921 L 58.631641,573.66921 z"
       id="path3671"
       inkscape:export-filename="C:\openanno\openanno\content\gui\images\icons\hud\main\message.png"
       inkscape:export-xdpi="90"
       inkscape:export-ydpi="90" />
    <path
       d="M 59.419261,574.11644 L 59.419261,573.5971 C 59.419261,573.5971 59.956261,573.5971 60.063661,573.5172 C 60.171061,573.43729 60.099461,573.91665 60.099461,573.91665 L 59.419261,574.11644 z"
       id="path3686"
       style="fill:url(#XMLID_34_)"
       inkscape:export-filename="C:\openanno\openanno\content\gui\images\icons\hud\main\message.png"
       inkscape:export-xdpi="90"
       inkscape:export-ydpi="90" />
    <path
       d="M 60.133041,573.79494 L 60.097241,574.32932 L 58.632501,574.42544 L 58.631641,573.66921 C 58.631641,573.66921 58.882241,573.98355 59.168641,574.01497 C 59.455051,574.04641 59.741451,574.04641 59.848861,573.98355 C 59.956261,573.92069 60.133041,573.79494 60.133041,573.79494 z"
       id="path3701"
       style="fill:url(#XMLID_35_)"
       inkscape:export-filename="C:\openanno\openanno\content\gui\images\icons\hud\main\message.png"
       inkscape:export-xdpi="90"
       inkscape:export-ydpi="90" />
    <ellipse
       transform="matrix(7.1600775e-2,0,0,6.2866835e-2,39.676261,557.69053)"
       cx="280.237"
       cy="247.16701"
       rx="9.5"
       ry="8.5"
       id="ellipse3708"
       style="fill:url(#XMLID_36_)"
       sodipodi:cx="280.237"
       sodipodi:cy="247.16701"
       sodipodi:rx="9.5"
       sodipodi:ry="8.5"
       inkscape:export-filename="C:\openanno\openanno\content\gui\images\icons\hud\main\message.png"
       inkscape:export-xdpi="90"
       inkscape:export-ydpi="90" />
    <ellipse
       transform="matrix(7.1600775e-2,0,0,6.2866835e-2,39.676261,557.69053)"
       cx="277.82001"
       cy="331.49899"
       rx="10.583"
       ry="10.5"
       id="ellipse3723"
       style="fill:url(#XMLID_37_)"
       sodipodi:cx="277.82001"
       sodipodi:cy="331.49899"
       sodipodi:rx="10.583"
       sodipodi:ry="10.5"
       inkscape:export-filename="C:\openanno\openanno\content\gui\images\icons\hud\main\message.png"
       inkscape:export-xdpi="90"
       inkscape:export-ydpi="90" />
    <path
       d="M 59.276051,578.43653 C 59.276051,578.43653 59.302111,578.56886 59.526651,578.59371 C 59.751191,578.61852 59.848861,578.4994 59.848861,578.4994 L 59.848861,578.0279 L 59.276051,578.1222 L 59.276051,578.43653 z"
       id="path3738"
       style="fill:url(#XMLID_38_)"
       inkscape:export-filename="C:\openanno\openanno\content\gui\images\icons\hud\main\message.png"
       inkscape:export-xdpi="90"
       inkscape:export-ydpi="90" />
    <path
       d="M 60.063661,574.32932 L 58.166251,574.48647 L 50.027661,574.23501 L 49.347451,574.36074 L 48.953651,574.42361 L 48.416651,574.14071 L 47.201571,574.1712 L 45.015601,574.10928 L 43.404581,573.98355 L 42.867561,574.26645 C 42.867561,574.26645 42.867561,574.39217 42.867561,574.48647 C 42.867561,574.58076 42.390201,574.65414 42.390201,574.65414 L 42.616971,574.17214 C 42.616971,574.17214 41.972561,574.20358 41.184961,574.26645 C 40.397341,574.32932 40.325741,574.70651 40.325741,574.70651 L 40.218911,578.33582 L 40.970151,577.96501 L 42.437971,577.80786 L 44.371191,577.96501 L 45.051391,577.83928 L 45.445211,577.77642 L 45.982221,578.05932 L 47.197291,578.02889 L 49.383241,578.09076 L 57.965611,578.22629 L 58.691351,578.0279 C 58.691351,578.0279 58.691351,577.90217 58.691351,577.80786 C 58.691351,577.71355 58.213921,577.64026 58.213921,577.64026 L 58.416841,578.1222 C 58.416841,578.1222 59.061231,578.09076 59.848861,578.0279 C 60.636471,577.96501 60.708071,577.58783 60.708071,577.58783 L 60.851261,573.95211 L 60.063661,574.32932 z"
       id="path3753"
       style="fill:url(#XMLID_39_)"
       inkscape:export-filename="C:\openanno\openanno\content\gui\images\icons\hud\main\message.png"
       inkscape:export-xdpi="90"
       inkscape:export-ydpi="90" />
    <path
       d="M 60.063661,574.32932 L 58.166251,574.48647 L 50.027661,574.23501 L 49.347451,574.36074 L 48.953651,574.42361 L 48.416651,574.14071 L 47.201571,574.1712 L 45.015601,574.10928 L 43.404581,573.98355 L 42.867561,574.26645 C 42.867561,574.26645 42.867561,574.39217 42.867561,574.48647 C 42.867561,574.58076 42.390201,574.65414 42.390201,574.65414 L 42.616971,574.17214 C 42.616971,574.17214 41.972561,574.20358 41.184961,574.26645 C 40.397341,574.32932 40.325741,574.70651 40.325741,574.70651 L 40.218911,578.33582 L 40.970151,577.96501 L 42.437971,577.80786 L 44.371191,577.96501 L 45.051391,577.83928 L 45.445211,577.77642 L 45.982221,578.05932 L 47.197291,578.02889 L 49.383241,578.09076 L 57.965611,578.22629 L 58.691351,578.0279 C 58.691351,578.0279 58.691351,577.90217 58.691351,577.80786 C 58.691351,577.71355 58.213921,577.64026 58.213921,577.64026 L 58.416841,578.1222 C 58.416841,578.1222 59.061231,578.09076 59.848861,578.0279 C 60.636471,577.96501 60.708071,577.58783 60.708071,577.58783 L 60.851261,573.95211 L 60.063661,574.32932 z"
       id="path3768"
       style="opacity:0.56999972;fill:url(#XMLID_40_)"
       inkscape:export-filename="C:\openanno\openanno\content\gui\images\icons\hud\main\message.png"
       inkscape:export-xdpi="90"
       inkscape:export-ydpi="90" />
    <g
       transform="matrix(7.1600775e-2,0,0,6.2866835e-2,39.676261,557.69053)"
       id="g3770"
       inkscape:export-filename="C:\openanno\openanno\content\gui\images\icons\hud\main\message.png"
       inkscape:export-xdpi="90"
       inkscape:export-ydpi="90">
	<path
   d="M 48.4,306.378 C 48.533,306.256 48.667,306.134 48.671,306.008 C 48.675,305.882 48.04,305.485 43.095,302.244 C 38.53,299.268 36.571,295.679 36.677,292.215 C 36.861,286.234 41.405,281.456 50.092,274.411 L 50.791,274.81 C 50.658,274.932 50.525,275.054 50.521,275.18 C 50.517,275.306 51.152,275.704 56.163,278.883 C 59.716,281.134 62.907,284.636 62.789,288.478 C 62.633,293.579 58.324,299.12 49.1,306.778 L 48.4,306.378 z M 46.89,279.67 C 45.404,279.625 41.239,282.586 41.085,287.623 C 40.759,298.265 50.641,300.773 51.74,300.808 C 54.906,300.905 58.263,296.848 58.41,292.062 C 58.663,283.813 48.829,279.73 46.89,279.67 z"
   id="path3772" />

	<path
   d="M 64.886,281.167 C 66.755,279.271 68.772,276.748 70.119,275.024 C 73.646,278.094 74.875,280.212 74.717,285.376 C 74.703,285.817 74.628,286.192 74.614,286.634 L 74.743,286.638 C 77.748,281.435 79.149,280.029 83.429,275.432 L 84.128,275.832 C 84.062,275.893 83.993,276.017 83.989,276.143 C 83.939,277.781 92.07,282.568 91.865,289.243 C 91.63,296.925 81.488,304.998 79.388,308.085 L 78.624,307.683 C 78.759,307.499 78.83,307.312 78.839,306.996 C 78.856,306.43 76.131,304.644 73.714,303.309 C 73.6,307.025 73.169,310.541 73.063,314.004 C 73.011,315.704 73.024,317.405 72.972,319.107 C 70.674,320.234 69.555,320.893 67.441,322.341 C 68.631,317.272 69.219,306.512 69.556,301.858 C 69.362,301.852 69.106,301.782 68.848,301.774 C 68.331,301.758 67.533,302.49 67.261,302.922 L 66.497,302.521 C 67.442,301.226 68.581,299.938 69.779,298.839 C 69.926,296.133 70.207,293.306 70.28,290.913 C 70.436,285.812 69.502,280.426 67.628,280.369 C 67.047,280.351 66.254,280.894 65.651,281.569 L 64.886,281.167 z M 80.72,281.526 C 78.329,281.453 74.255,289.901 73.971,299.156 C 76.912,300.255 80.06,303.061 81.287,303.099 C 82.903,303.149 87.747,296.994 87.859,293.341 C 88.008,288.495 82.464,281.58 80.72,281.526 z"
   id="path3774" />

	<path
   d="M 114.615,298.134 C 111.552,301.002 107.428,304.72 104.339,308.47 L 103.639,308.071 L 103.909,307.702 C 100.421,305.452 93.864,299.957 94.08,292.903 C 94.356,283.899 105.278,277.804 106.622,276.144 C 108.78,277.471 110.782,279.675 112.303,282.811 L 113.223,282.334 L 113.652,283.104 C 108.908,285.984 107.191,287.129 99.199,292.557 L 99.949,289.176 L 100.401,289.19 C 100.452,289.632 100.644,289.702 100.967,289.711 C 101.484,289.727 106.767,286.17 106.788,285.478 C 106.836,283.904 105.247,280.893 104.02,280.855 C 101.758,280.786 98.212,284.648 98.083,288.867 C 97.825,297.305 105.351,302.83 107.096,302.884 C 107.483,302.896 107.879,302.656 108.742,301.926 L 113.731,297.415 L 114.615,298.134 z"
   id="path3776" />

	<path
   d="M 133.138,282.439 C 129.98,286.314 125.855,292.175 124.612,296.864 C 124.1,298.802 123.815,303.898 123.688,305.911 C 121.915,306.803 120.401,307.639 118.746,308.911 C 119.917,304.473 120.823,289.688 121.186,284.153 C 119.978,283.485 119.289,282.77 118.407,281.987 L 116.008,284.309 L 115.127,283.526 C 117.523,281.33 119.323,279.557 121.342,276.972 C 122.837,278.846 124.415,280.092 126.522,280.976 C 125.581,282.144 125.056,286.603 124.012,293.253 L 124.141,293.257 C 126.148,288.97 133.771,278.677 136.213,277.05 L 136.842,277.636 L 136.502,278.193 L 141.618,282.195 L 142.07,282.209 L 142.035,283.342 L 141.518,283.326 C 140.641,284.497 139.187,291.827 139.004,297.809 C 138.894,301.398 139.609,303.373 142.537,304.913 L 145.203,302.347 L 146.086,303.068 C 144.231,304.524 142.546,306.742 140.196,309.569 C 135.95,306.728 134.913,304.68 135.094,298.76 C 135.187,295.738 136.061,288.326 136.615,285.003 L 133.138,282.439 z"
   id="path3778" />

	<path
   d="M 188.337,302.346 L 189.219,303.13 L 182.256,310.858 C 179.191,307.487 178.51,304.378 178.352,301.095 L 178.223,301.091 C 176.053,304.365 173.15,308.373 169.592,310.47 L 169.087,310.076 L 169.555,309.586 C 165.772,306.444 162.658,300.425 162.816,295.261 C 163,289.28 166.129,286.35 176.981,278.3 C 181.266,281.961 183.494,283.164 185.942,283.427 C 183.274,286.118 182.534,291.265 182.37,296.616 C 182.229,301.214 183.1,304.455 185.532,305.285 L 188.337,302.346 z M 173.001,304.776 C 174.874,304.834 177.459,300.69 177.96,294.907 C 178.458,289.186 178.779,287.116 179.526,286.005 C 176.903,285.042 174.829,283.088 173.924,283.06 C 172.825,283.027 167.372,285.822 167.17,292.433 C 166.92,300.62 171.192,304.72 173.001,304.776 z"
   id="path3780" />

	<path
   d="M 207.244,284.71 C 204.086,288.584 199.962,294.445 198.719,299.135 C 198.207,301.073 197.921,306.169 197.795,308.183 C 196.022,309.074 194.509,309.91 192.853,311.183 C 194.024,306.745 194.929,291.959 195.293,286.424 C 194.084,285.757 193.395,285.042 192.513,284.259 L 190.115,286.58 L 189.234,285.797 C 191.63,283.602 193.429,281.829 195.449,279.243 C 196.943,281.117 198.522,282.363 200.629,283.247 C 199.689,284.415 199.163,288.875 198.119,295.524 L 198.248,295.528 C 200.255,291.24 207.878,280.947 210.321,279.32 L 210.949,279.906 L 210.608,280.463 L 215.724,284.465 L 216.176,284.479 L 216.141,285.613 L 215.625,285.596 C 214.747,286.767 213.295,294.097 213.111,300.079 C 213.001,303.668 213.716,305.644 216.644,307.183 L 219.309,304.618 L 220.193,305.339 C 218.338,306.794 216.653,309.012 214.302,311.839 C 210.056,308.998 209.02,306.95 209.2,301.031 C 209.293,298.008 210.167,290.597 210.721,287.273 L 207.244,284.71 z"
   id="path3782" />

	<path
   d="M 238.32,285.663 C 235.162,289.538 231.038,295.399 229.795,300.088 C 229.283,302.026 228.997,307.123 228.871,309.136 C 227.098,310.027 225.585,310.863 223.929,312.136 C 225.1,307.698 226.005,292.913 226.369,287.377 C 225.16,286.71 224.471,285.995 223.59,285.212 L 221.191,287.533 L 220.31,286.75 C 222.706,284.555 224.505,282.782 226.525,280.196 C 228.019,282.07 229.598,283.316 231.705,284.2 C 230.765,285.369 230.239,289.828 229.195,296.477 L 229.324,296.481 C 231.331,292.193 238.954,281.901 241.397,280.273 L 242.025,280.859 L 241.685,281.416 L 246.8,285.417 L 247.252,285.431 L 247.217,286.565 L 246.701,286.549 C 245.823,287.72 244.371,295.05 244.187,301.031 C 244.078,304.62 244.792,306.596 247.72,308.135 L 250.385,305.57 L 251.269,306.291 C 249.414,307.746 247.729,309.965 245.378,312.791 C 241.132,309.951 240.096,307.902 240.276,301.983 C 240.369,298.96 241.243,291.549 241.797,288.226 L 238.32,285.663 z"
   id="path3784" />

	<path
   d="M 263.544,312.971 C 263.677,312.849 263.811,312.727 263.815,312.601 C 263.819,312.475 263.184,312.078 258.239,308.838 C 253.674,305.861 251.715,302.272 251.821,298.809 C 252.004,292.827 256.548,288.049 265.235,281.004 L 265.934,281.403 C 265.801,281.525 265.667,281.647 265.664,281.773 C 265.66,281.899 266.294,282.297 271.306,285.476 C 274.859,287.728 278.05,291.23 277.932,295.071 C 277.776,300.172 273.467,305.713 264.244,313.371 L 263.544,312.971 z M 262.035,286.263 C 260.55,286.218 256.385,289.179 256.23,294.216 C 255.904,304.859 265.786,307.367 266.883,307.401 C 270.05,307.498 273.407,303.441 273.554,298.655 C 273.807,290.406 263.973,286.323 262.035,286.263 z"
   id="path3786" />

</g>
    <line
       x1="48.028851"
       y1="564.13367"
       x2="48.023998"
       y2="563.98163"
       id="line3788"
       style="fill:none;stroke:#000000;stroke-width:0.03354594;stroke-linejoin:round"
       inkscape:export-filename="C:\openanno\openanno\content\gui\images\icons\hud\main\message.png"
       inkscape:export-xdpi="90"
       inkscape:export-ydpi="90" />
    <line
       x1="48.619564"
       y1="564.09448"
       x2="48.614697"
       y2="563.94226"
       id="line3790"
       style="fill:none;stroke:#000000;stroke-width:0.03354594;stroke-linejoin:round"
       inkscape:export-filename="C:\openanno\openanno\content\gui\images\icons\hud\main\message.png"
       inkscape:export-xdpi="90"
       inkscape:export-ydpi="90" />
    <line
       x1="49.246059"
       y1="564.06305"
       x2="49.241222"
       y2="563.91083"
       id="line3792"
       style="fill:none;stroke:#000000;stroke-width:0.03354594;stroke-linejoin:round"
       inkscape:export-filename="C:\openanno\openanno\content\gui\images\icons\hud\main\message.png"
       inkscape:export-xdpi="90"
       inkscape:export-ydpi="90" />
    <line
       x1="49.809933"
       y1="564.03162"
       x2="49.80505"
       y2="563.87952"
       id="line3794"
       style="fill:none;stroke:#000000;stroke-width:0.03354594;stroke-linejoin:round"
       inkscape:export-filename="C:\openanno\openanno\content\gui\images\icons\hud\main\message.png"
       inkscape:export-xdpi="90"
       inkscape:export-ydpi="90" />
    <line
       x1="50.436428"
       y1="563.99225"
       x2="50.431576"
       y2="563.84009"
       id="line3796"
       style="fill:none;stroke:#000000;stroke-width:0.03354594;stroke-linejoin:round"
       inkscape:export-filename="C:\openanno\openanno\content\gui\images\icons\hud\main\message.png"
       inkscape:export-xdpi="90"
       inkscape:export-ydpi="90" />
    <line
       x1="51.143475"
       y1="563.953"
       x2="51.138607"
       y2="563.80084"
       id="line3798"
       style="fill:none;stroke:#000000;stroke-width:0.03354594;stroke-linejoin:round"
       inkscape:export-filename="C:\openanno\openanno\content\gui\images\icons\hud\main\message.png"
       inkscape:export-xdpi="90"
       inkscape:export-ydpi="90" />
    <line
       x1="51.922146"
       y1="563.92151"
       x2="51.917278"
       y2="563.76941"
       id="line3800"
       style="fill:none;stroke:#000000;stroke-width:0.03354594;stroke-linejoin:round"
       inkscape:export-filename="C:\openanno\openanno\content\gui\images\icons\hud\main\message.png"
       inkscape:export-xdpi="90"
       inkscape:export-ydpi="90" />
    <line
       x1="48.501766"
       y1="559.94336"
       x2="48.496944"
       y2="559.7619"
       id="line3802"
       style="fill:none;stroke:#000000;stroke-width:0.03354594;stroke-linejoin:round"
       inkscape:export-filename="C:\openanno\openanno\content\gui\images\icons\hud\main\message.png"
       inkscape:export-xdpi="90"
       inkscape:export-ydpi="90" />
    <line
       x1="50.906338"
       y1="559.51611"
       x2="50.901501"
       y2="559.36414"
       id="line3804"
       style="fill:none;stroke:#000000;stroke-width:0.03354594;stroke-linejoin:round"
       inkscape:export-filename="C:\openanno\openanno\content\gui\images\icons\hud\main\message.png"
       inkscape:export-xdpi="90"
       inkscape:export-ydpi="90" />
    <line
       x1="50.067547"
       y1="559.65369"
       x2="50.06274"
       y2="559.50159"
       id="line3806"
       style="fill:none;stroke:#000000;stroke-width:0.03354594;stroke-linejoin:round"
       inkscape:export-filename="C:\openanno\openanno\content\gui\images\icons\hud\main\message.png"
       inkscape:export-xdpi="90"
       inkscape:export-ydpi="90" />
    <line
       x1="49.25668"
       y1="559.79608"
       x2="49.251858"
       y2="559.63409"
       id="line3808"
       style="fill:none;stroke:#000000;stroke-width:0.03354594;stroke-linejoin:round"
       inkscape:export-filename="C:\openanno\openanno\content\gui\images\icons\hud\main\message.png"
       inkscape:export-xdpi="90"
       inkscape:export-ydpi="90" />
    <line
       x1="53.603436"
       y1="559.71851"
       x2="53.598629"
       y2="559.60571"
       id="line3810"
       style="fill:none;stroke:#000000;stroke-width:0.03354594;stroke-linejoin:round"
       inkscape:export-filename="C:\openanno\openanno\content\gui\images\icons\hud\main\message.png"
       inkscape:export-xdpi="90"
       inkscape:export-ydpi="90" />
    <line
       x1="52.65826"
       y1="559.93048"
       x2="52.653469"
       y2="559.80304"
       id="line3812"
       style="fill:none;stroke:#000000;stroke-width:0.03354594;stroke-linejoin:round"
       inkscape:export-filename="C:\openanno\openanno\content\gui\images\icons\hud\main\message.png"
       inkscape:export-xdpi="90"
       inkscape:export-ydpi="90" />
    <line
       x1="51.746868"
       y1="560.1416"
       x2="51.742001"
       y2="559.98956"
       id="line3814"
       style="fill:none;stroke:#000000;stroke-width:0.03354594;stroke-linejoin:round"
       inkscape:export-filename="C:\openanno\openanno\content\gui\images\icons\hud\main\message.png"
       inkscape:export-xdpi="90"
       inkscape:export-ydpi="90" />
    <line
       x1="55.678539"
       y1="562.63983"
       x2="55.673672"
       y2="562.53754"
       id="line3816"
       style="fill:none;stroke:#000000;stroke-width:0.03354594;stroke-linejoin:round"
       inkscape:export-filename="C:\openanno\openanno\content\gui\images\icons\hud\main\message.png"
       inkscape:export-xdpi="90"
       inkscape:export-ydpi="90" />
    <line
       x1="55.096935"
       y1="562.68182"
       x2="55.092037"
       y2="562.57147"
       id="line3818"
       style="fill:none;stroke:#000000;stroke-width:0.03354594;stroke-linejoin:round"
       inkscape:export-filename="C:\openanno\openanno\content\gui\images\icons\hud\main\message.png"
       inkscape:export-xdpi="90"
       inkscape:export-ydpi="90" />
    <line
       x1="53.956188"
       y1="562.74078"
       x2="53.951397"
       y2="562.67706"
       id="line3820"
       style="fill:none;stroke:#000000;stroke-width:0.03354594;stroke-linejoin:round"
       inkscape:export-filename="C:\openanno\openanno\content\gui\images\icons\hud\main\message.png"
       inkscape:export-xdpi="90"
       inkscape:export-ydpi="90" />
    <line
       x1="54.4259"
       y1="562.72601"
       x2="54.421017"
       y2="562.62555"
       id="line3822"
       style="fill:none;stroke:#000000;stroke-width:0.03354594;stroke-linejoin:round"
       inkscape:export-filename="C:\openanno\openanno\content\gui\images\icons\hud\main\message.png"
       inkscape:export-xdpi="90"
       inkscape:export-ydpi="90" />
    <line
       x1="56.247189"
       y1="564.33826"
       x2="56.242382"
       y2="564.18622"
       id="line3824"
       style="fill:none;stroke:#000000;stroke-width:0.03354594;stroke-linejoin:round"
       inkscape:export-filename="C:\openanno\openanno\content\gui\images\icons\hud\main\message.png"
       inkscape:export-xdpi="90"
       inkscape:export-ydpi="90" />
    <line
       x1="55.660778"
       y1="564.35754"
       x2="55.65591"
       y2="564.20538"
       id="line3826"
       style="fill:none;stroke:#000000;stroke-width:0.03354594;stroke-linejoin:round"
       inkscape:export-filename="C:\openanno\openanno\content\gui\images\icons\hud\main\message.png"
       inkscape:export-xdpi="90"
       inkscape:export-ydpi="90" />
    <line
       x1="55.03651"
       y1="564.41064"
       x2="55.031612"
       y2="564.21991"
       id="line3828"
       style="fill:none;stroke:#000000;stroke-width:0.03354594;stroke-linejoin:round"
       inkscape:export-filename="C:\openanno\openanno\content\gui\images\icons\hud\main\message.png"
       inkscape:export-xdpi="90"
       inkscape:export-ydpi="90" />
    <line
       x1="54.817471"
       y1="563.17493"
       x2="54.812649"
       y2="562.88928"
       id="line3830"
       style="fill:none;stroke:#000000;stroke-width:0.03354594;stroke-linejoin:round"
       inkscape:export-filename="C:\openanno\openanno\content\gui\images\icons\hud\main\message.png"
       inkscape:export-xdpi="90"
       inkscape:export-ydpi="90" />
    <line
       x1="53.698696"
       y1="563.24567"
       x2="53.69389"
       y2="562.97388"
       id="line3832"
       style="fill:none;stroke:#000000;stroke-width:0.03354594;stroke-linejoin:round"
       inkscape:export-filename="C:\openanno\openanno\content\gui\images\icons\hud\main\message.png"
       inkscape:export-xdpi="90"
       inkscape:export-ydpi="90" />
    <line
       x1="52.741039"
       y1="563.31183"
       x2="52.736263"
       y2="563.08185"
       id="line3834"
       style="fill:none;stroke:#000000;stroke-width:0.03354594;stroke-linejoin:round"
       inkscape:export-filename="C:\openanno\openanno\content\gui\images\icons\hud\main\message.png"
       inkscape:export-xdpi="90"
       inkscape:export-ydpi="90" />
    <line
       x1="51.69389"
       y1="563.39105"
       x2="51.689098"
       y2="563.17218"
       id="line3836"
       style="fill:none;stroke:#000000;stroke-width:0.03354594;stroke-linejoin:round"
       inkscape:export-filename="C:\openanno\openanno\content\gui\images\icons\hud\main\message.png"
       inkscape:export-xdpi="90"
       inkscape:export-ydpi="90" />
    <line
       x1="50.763073"
       y1="563.45331"
       x2="50.758297"
       y2="563.25476"
       id="line3838"
       style="fill:none;stroke:#000000;stroke-width:0.03354594;stroke-linejoin:round"
       inkscape:export-filename="C:\openanno\openanno\content\gui\images\icons\hud\main\message.png"
       inkscape:export-xdpi="90"
       inkscape:export-ydpi="90" />
    <path
       d="M 48.309381,573.69014 C 48.309381,573.69014 48.362161,573.63795 48.462301,573.54266 C 48.510791,573.49657 48.601581,573.45968 48.625291,573.41279 C 48.695871,573.27283 48.750801,573.14533 48.750801,573.14533 C 48.750801,573.14533 48.703041,573.38631 49.073001,573.42824 C 49.073001,573.42824 48.838721,573.3865 48.673251,573.47017 C 48.507771,573.55385 48.309381,573.69014 48.309381,573.69014 z"
       id="path3840"
       style="fill:#715228"
       inkscape:export-filename="C:\openanno\openanno\content\gui\images\icons\hud\main\message.png"
       inkscape:export-xdpi="90"
       inkscape:export-ydpi="90" />
    <path
       d="M 48.518091,573.91539 C 48.518091,573.91539 48.240641,574.13543 47.831941,574.13022 C 47.423251,574.12499 47.154751,573.92854 47.154751,573.92854 C 47.154751,573.92854 47.181581,573.79494 47.101031,573.68493 C 47.020491,573.57491 46.859391,573.37846 46.814641,573.37846 C 46.769891,573.37846 46.590881,573.40989 46.590881,573.40989 L 46.913081,573.11126 C 46.913081,573.11126 46.998511,573.37022 47.029451,573.44917 C 47.062241,573.53296 47.101031,573.63776 47.235301,573.73994 C 47.369551,573.8421 47.521711,573.95211 47.620151,573.93639 C 47.718601,573.92069 47.691761,573.95211 47.763351,573.80281 C 47.834961,573.65349 47.790191,572.55854 47.790191,572.55854 L 47.781241,571.95608 L 47.831941,571.94534 L 47.843901,573.7478 C 47.843901,573.7478 47.867741,573.93639 47.993041,573.95211 C 48.118351,573.96783 48.237711,573.95996 48.371971,573.90496 C 48.371971,573.90496 48.547951,573.83159 48.583751,573.79494 C 48.619551,573.75829 48.518091,573.91539 48.518091,573.91539 z"
       id="path3842"
       style="fill:#715228"
       inkscape:export-filename="C:\openanno\openanno\content\gui\images\icons\hud\main\message.png"
       inkscape:export-xdpi="90"
       inkscape:export-ydpi="90" />
    <path
       d="M 49.675231,568.72559 C 49.047941,568.79142 48.496401,568.83896 48.211281,568.83896 C 47.283981,568.83896 46.743111,568.83896 46.144241,568.71321 C 45.545371,568.58749 45.390861,568.37788 46.279491,568.25215 C 47.168131,568.12642 47.902251,568.16836 47.902251,568.16836"
       id="path3844"
       style="fill:none;stroke:#8c6631;stroke-width:0.13418379"
       inkscape:export-filename="C:\openanno\openanno\content\gui\images\icons\hud\main\message.png"
       inkscape:export-xdpi="90"
       inkscape:export-ydpi="90" />
    <line
       x1="45.95837"
       y1="568.71313"
       x2="45.95837"
       y2="569.31995"
       id="line3846"
       style="fill:none;stroke:#8c6631;stroke-width:0.0670919;stroke-linecap:round"
       inkscape:export-filename="C:\openanno\openanno\content\gui\images\icons\hud\main\message.png"
       inkscape:export-xdpi="90"
       inkscape:export-ydpi="90" />
    <line
       x1="46.346233"
       y1="568.76025"
       x2="46.346233"
       y2="569.41937"
       id="line3848"
       style="fill:none;stroke:#8c6631;stroke-width:0.0670919;stroke-linecap:round"
       inkscape:export-filename="C:\openanno\openanno\content\gui\images\icons\hud\main\message.png"
       inkscape:export-xdpi="90"
       inkscape:export-ydpi="90" />
    <line
       x1="46.722042"
       y1="568.80219"
       x2="46.722042"
       y2="569.47284"
       id="line3850"
       style="fill:none;stroke:#8c6631;stroke-width:0.0670919;stroke-linecap:round"
       inkscape:export-filename="C:\openanno\openanno\content\gui\images\icons\hud\main\message.png"
       inkscape:export-xdpi="90"
       inkscape:export-ydpi="90" />
    <line
       x1="47.145718"
       y1="568.83893"
       x2="47.145718"
       y2="569.5094"
       id="line3852"
       style="fill:none;stroke:#8c6631;stroke-width:0.0670919;stroke-linecap:round"
       inkscape:export-filename="C:\openanno\openanno\content\gui\images\icons\hud\main\message.png"
       inkscape:export-xdpi="90"
       inkscape:export-ydpi="90" />
    <line
       x1="47.581264"
       y1="568.84412"
       x2="47.581264"
       y2="569.51465"
       id="line3854"
       style="fill:none;stroke:#8c6631;stroke-width:0.0670919;stroke-linecap:round"
       inkscape:export-filename="C:\openanno\openanno\content\gui\images\icons\hud\main\message.png"
       inkscape:export-xdpi="90"
       inkscape:export-ydpi="90" />
    <line
       x1="45.623501"
       y1="568.45612"
       x2="45.623501"
       y2="569.15619"
       id="line3856"
       style="fill:none;stroke:#8c6631;stroke-width:0.0670919;stroke-linecap:round"
       inkscape:export-filename="C:\openanno\openanno\content\gui\images\icons\hud\main\message.png"
       inkscape:export-xdpi="90"
       inkscape:export-ydpi="90" />
    <path
       d="M 47.594071,569.54942 C 47.000231,569.54213 46.567401,569.51308 46.100711,569.39684 C 45.812721,569.32504 45.623571,569.23118 45.595131,569.13562"
       id="path3858"
       style="fill:none;stroke:#523c26;stroke-width:0.0670919;stroke-linecap:round"
       inkscape:export-filename="C:\openanno\openanno\content\gui\images\icons\hud\main\message.png"
       inkscape:export-xdpi="90"
       inkscape:export-ydpi="90" />
    <line
       x1="45.872509"
       y1="568.35394"
       x2="45.872509"
       y2="568.94751"
       id="line3860"
       style="fill:none;stroke:#8c6631;stroke-width:0.0670919;stroke-linecap:round"
       inkscape:export-filename="C:\openanno\openanno\content\gui\images\icons\hud\main\message.png"
       inkscape:export-xdpi="90"
       inkscape:export-ydpi="90" />
    <line
       x1="47.854336"
       y1="568.13159"
       x2="47.854336"
       y2="568.76489"
       id="line3862"
       style="fill:none;stroke:#8c6631;stroke-width:0.0670919"
       inkscape:export-filename="C:\openanno\openanno\content\gui\images\icons\hud\main\message.png"
       inkscape:export-xdpi="90"
       inkscape:export-ydpi="90" />
    <line
       x1="47.423824"
       y1="568.21497"
       x2="47.423824"
       y2="568.74182"
       id="line3864"
       style="fill:none;stroke:#8c6631;stroke-width:0.0670919;stroke-linecap:round"
       inkscape:export-filename="C:\openanno\openanno\content\gui\images\icons\hud\main\message.png"
       inkscape:export-xdpi="90"
       inkscape:export-ydpi="90" />
    <line
       x1="46.982281"
       y1="568.24121"
       x2="46.982281"
       y2="568.76807"
       id="line3866"
       style="fill:none;stroke:#8c6631;stroke-width:0.0670919;stroke-linecap:round"
       inkscape:export-filename="C:\openanno\openanno\content\gui\images\icons\hud\main\message.png"
       inkscape:export-xdpi="90"
       inkscape:export-ydpi="90" />
    <line
       x1="46.188641"
       y1="568.30396"
       x2="46.188641"
       y2="568.87286"
       id="line3868"
       style="fill:none;stroke:#8c6631;stroke-width:0.0670919;stroke-linecap:round"
       inkscape:export-filename="C:\openanno\openanno\content\gui\images\icons\hud\main\message.png"
       inkscape:export-xdpi="90"
       inkscape:export-ydpi="90" />
    <line
       x1="46.564617"
       y1="568.27783"
       x2="46.564617"
       y2="568.80469"
       id="line3870"
       style="fill:none;stroke:#8c6631;stroke-width:0.0670919;stroke-linecap:round"
       inkscape:export-filename="C:\openanno\openanno\content\gui\images\icons\hud\main\message.png"
       inkscape:export-xdpi="90"
       inkscape:export-ydpi="90" />
    <path
       d="M 45.838991,569.5095 C 45.838991,569.5095 45.677971,569.29611 45.502341,569.2672 C 45.326711,569.23828 44.860501,569.11129 44.860501,569.11129 L 45.582101,569.5366 L 45.838991,569.5095 z"
       id="path3872"
       style="fill:#d1bb6f"
       inkscape:export-filename="C:\openanno\openanno\content\gui\images\icons\hud\main\message.png"
       inkscape:export-xdpi="90"
       inkscape:export-ydpi="90" />
    <path
       d="M 44.460771,569.84476 L 44.474441,569.52458 L 44.980871,569.94033 C 44.980871,569.94033 44.758051,569.91921 44.742581,569.91742 C 44.627291,569.90431 44.460771,569.84476 44.460771,569.84476 z"
       id="path3874"
       style="fill:#ac8c55"
       inkscape:export-filename="C:\openanno\openanno\content\gui\images\icons\hud\main\message.png"
       inkscape:export-xdpi="90"
       inkscape:export-ydpi="90" />
    <path
       d="M 55.980541,568.93345 C 55.980541,568.93345 56.365061,568.77225 56.500151,568.69227 C 56.635261,568.61231 56.751471,568.53505 56.751471,568.53505 C 56.751471,568.53505 56.826861,568.61508 56.801741,568.72541 C 56.776611,568.83575 56.760931,569.00681 56.380741,569.33785 C 56.000531,569.66892 55.686351,569.78203 55.544921,569.82069 C 55.403511,569.85935 55.362701,569.86205 55.362701,569.86205"
       id="path3876"
       style="fill:none;stroke:#59421f;stroke-width:0.03354594"
       inkscape:export-filename="C:\openanno\openanno\content\gui\images\icons\hud\main\message.png"
       inkscape:export-xdpi="90"
       inkscape:export-ydpi="90" />
  </g>
</svg>
