<?xml version="1.0" encoding="utf-8"?>
<!-- Generator: Adobe Illustrator 12.0.1, SVG Export Plug-In . SVG Version: 6.00 Build 51448)  -->
<!DOCTYPE svg PUBLIC "-//W3C//DTD SVG 1.1//EN" "http://www.w3.org/Graphics/SVG/1.1/DTD/svg11.dtd" [
	<!ENTITY ns_svg "http://www.w3.org/2000/svg">
	<!ENTITY ns_xlink "http://www.w3.org/1999/xlink">
]>
<svg  version="1.1" id="Ebene_1" xmlns="&ns_svg;" xmlns:xlink="&ns_xlink;" width="296.047" height="347.499"
	 viewBox="0 0 296.047 347.499" overflow="visible" enable-background="new 0 0 296.047 347.499" xml:space="preserve">
<linearGradient id="XMLID_21_" gradientUnits="userSpaceOnUse" x1="154.4004" y1="57.6665" x2="154.4004" y2="272.6664">
	<stop  offset="0" style="stop-color:#E0DEFF"/>
	<stop  offset="0.1863" style="stop-color:#E2E0FF"/>
	<stop  offset="0.2533" style="stop-color:#E8E7FF"/>
	<stop  offset="0.301" style="stop-color:#F3F2FF"/>
	<stop  offset="0.3315" style="stop-color:#FFFFFF"/>
	<stop  offset="0.5582" style="stop-color:#FFFFFF"/>
	<stop  offset="0.5955" style="stop-color:#FFFFFF"/>
	<stop  offset="0.6053" style="stop-color:#F2F5F6"/>
	<stop  offset="0.6512" style="stop-color:#BAC9CF"/>
	<stop  offset="0.6985" style="stop-color:#88A1AD"/>
	<stop  offset="0.7463" style="stop-color:#5E8090"/>
	<stop  offset="0.7945" style="stop-color:#3C6679"/>
	<stop  offset="0.8434" style="stop-color:#225166"/>
	<stop  offset="0.8933" style="stop-color:#0F4259"/>
	<stop  offset="0.9447" style="stop-color:#043952"/>
	<stop  offset="1" style="stop-color:#00364F"/>
</linearGradient>
<ellipse fill="url(#XMLID_21_)" stroke="#382611" stroke-width="10" cx="154.401" cy="164.495" rx="124.83" ry="122.95"/>
<path fill="#7A1218" d="M74.127,218.496c0,0,8,5,19,1.5s28-11.5,28-11.5s20-8.5,32.5-10s36-7,36-7h7l4.5,10.667
	c0,0,3.446,2.541,19.479-2.721c15.792-5.183,18.807-16.059,21.05-19.336c2.206-3.223,3.971-15.609,3.971-15.609l14.5-3.5
	c0,0-4,30.5-14.5,40s-40,24.5-70,30.5s-59.5,13.5-59.5,13.5l-20.5,1C95.627,245.996,81.127,239.996,74.127,218.496z"/>
<path fill="#270303" d="M94.649,245.729c0,0,27.047,13.188,46.755,9.271c30.553-6.072,42.167-9.167,63.833-18.833
	s39.991-30.667,46.991-45.167l-73.658,32.834l-59,18.667L94.649,245.729z"/>
<ellipse transform="matrix(0.9488 -0.3159 0.3159 0.9488 -66.0897 47.8688)" cx="114.615" cy="227.801" rx="8.917" ry="4.655"/>
<path fill="#4B110E" d="M106.946,227.417c0,0-0.625,3.625,2.25,4.25s7.625-0.75,9.25-1.875s4.665-4.617,4.665-4.617
	s1.126,2.891-3.79,5.617c-4.708,2.61-8.25,2.5-9.625,2.25s-3.095-0.935-3.541-2.424
	C105.572,228.667,106.946,227.417,106.946,227.417z"/>
<path fill="#8C6631" d="M128.904,243.167c-1.333,0-2.667,1.333-2.667,1.333l0.5,1.333l-2,4.667c0,0-2.167,1.5-3.333,3
	s-3.333,2-4.667,1.833s-1.167-2.167-1.167-2.167v-25.921l-1.667-0.5l-1.667,0.5v25.921c0,0,0.166,2-1.167,2.167
	s-3.5-0.333-4.667-1.833s-3.333-3-3.333-3l-2-4.667l0.5-1.333c0,0-1.333-1.333-2.667-1.333s-2.333,0.833-2.333,4s0,3.167,0,3.167
	s1-0.666,3.167,1.167s2.667,3,2.667,3l1.667,3.167c0,0,2.5,3.667,9.833,3.833c7.333-0.167,9.833-3.833,9.833-3.833l1.667-3.167
	c0,0,0.5-1.167,2.667-3s3.167-1.167,3.167-1.167s0,0,0-3.167S130.238,243.167,128.904,243.167z"/>
<path fill="#691714" d="M69.404,179c0,0,12.34-11.364,34.667-15.333c5.625-1,8.333-1,8.333-1l2,4c0,0,1.333,7,9.333,7.667
	S138.071,172,138.071,172l2.875,6.917c0,0-21.083,6.899-27.25,10.125c-7.25,3.792-26.625,5.958-26.625,5.958l-16,1.333L69.404,179z"
	/>
<path fill="#96161D" d="M180.738,170.333c0,0,5.666-21,16.333-27.333s18.667-5.667,31.667-5.667s25,2.333,28,4.333s4.333,4,4.333,4
	s-3.999,3.667-7.666,4.333s-6.168,2.167-7.584,3.917S242.071,167,242.071,167s0.666,9.667-5,16.667S223.027,197.989,212.738,199
	c-14.417,1.417-11.417-1.833-11.417-1.833l-6.583-18.5l-10.667-2.333L180.738,170.333z"/>
<path fill="#6B4E2B" d="M113.666,191.001c-10.247-0.224-17.396-0.75-25.123-3.007c-9.646-2.818-12.083-7.332,2.32-9.825
	c14.403-2.493,26.259-1.436,26.259-1.436l30.298,0.746L113.666,191.001z"/>
<path fill="#AC8C55" d="M115.666,189.001c-10.247-0.214-17.396-0.69-25.127-2.694c-9.65-2.502-12.095-6.489,2.304-8.667
	c14.399-2.177,26.256-1.225,26.256-1.225l30.298,0.707L115.666,189.001z"/>
<path fill="#AC8C55" d="M239.071,159.167c0,0,14.396-2.779,15.5-6.5s-4.5-3-9.5-4s-31-3-37-1s-13.5,4.5-13.5,4.5l-4,0.5
	L239.071,159.167z"/>
<line fill="none" stroke="#8C6631" stroke-linecap="round" x1="131.988" y1="176.416" x2="131.988" y2="182.5"/>
<line fill="none" stroke="#8C6631" stroke-linecap="round" x1="124.405" y1="177.25" x2="124.405" y2="185.917"/>
<line fill="none" stroke="#8C6631" stroke-linecap="round" x1="139.155" y1="174.667" x2="139.155" y2="180.917"/>
<line fill="none" stroke="#8C6631" stroke-width="2" stroke-linecap="round" x1="166.654" y1="172.499" x2="166.654" y2="177.417"/>
<line fill="none" stroke="#8C6631" stroke-linecap="round" x1="116.488" y1="177.583" x2="116.488" y2="187.75"/>
<path fill="#D1BB6F" d="M111.801,188.509c8.116-2.928,16.759-6.339,21.27-7.843c8-2.667,26.001-5.333,31.667-5.333
	s20.666,0,25.333,0.667s6.667,2,7,4s1.333,10.333,3,14s3.667,5,3.667,5l-2.667,3.333l-4.5-10.667h-7.833l-17,3.333
	c0,0-27.667,5.333-43.333,11s-29.667,13-35.333,14.167s-12,0.833-16.667-0.5s-2.333-1-2.333-1s-8.322-14.752-7.249-25.334
	c0,0,10.72,3.343,11.387,0.01s0.862-5.009,0.862-5.009l7-0.333l1,7c0,0,1-0.333,9-1.667
	C99.56,192.752,105.522,190.775,111.801,188.509"/>
<path fill="#CEA665" d="M68.404,200c0,0,17.333,4.667,39.333-3s32-11,42.667-13.667s25.666-6.334,29-5.667s7.334-0.333,11.334,1.333
	s5.76,11.977,6.093,13.31l-1.76,0.023c-9.339,0.333-9.192,0.304-32,5c-22.667,4.667-51.667,16.333-58,18.667s-10.375,4.75-18,5.333
	s-13-2.667-13-2.667s-5-10.333-5.333-13.333S68.404,200,68.404,200z"/>
<path opacity="0.65" fill="#523C26" d="M74.071,219.263c0,0-5.199-11.963-6.172-15.562s-1.077-10.368-1.077-10.368
	s4.722,4.721,9.174,4.782C85.801,198.249,86.071,188,86.071,188l2.196,12.993l4.348-0.182l3.707,18.73c0,0-8.208,2-9.875,2
	s-6.5-0.625-6.5-0.625L74.071,219.263z"/>
<path fill="#95724B" d="M82.482,188.432L0.149,132.098c0,0-2,3,8.667,11s65.333,49.667,65.333,49.667s5.667,1.333,7-0.667
	S82.482,188.432,82.482,188.432z"/>
<path fill="#523C26" d="M72.773,194.22c0,0,5.452,2.959,7.341-0.111c2.898-4.71-1.043-5.775-1.043-5.775l-2.667,2
	c0,0-3-1-4.333-2.333s-2-5-2-5l2.333-1.333l-3.667-2.333c0,0,2,5,0.333,4.333s-9.333-2.667-9.333-5s-1-7-1-7l-1-0.667
	c0,0,0.333,3-1,3.333s-6.667,0-8-3.667s-2.333-6.333-2.333-6.333l-0.333-1c0,0-0.667,2-2.667,2s-4.667-2-4.667-2l-4.333-3.667
	l-2.667-2.333h-3.667l38.368,30.326L72.773,194.22z"/>
<path d="M80.737,206.667l1.167,8.667l-6.5-0.667l-3.333-9C72.071,205.667,77.07,207.667,80.737,206.667z"/>
<path d="M85.071,215.167l-1-8.167l11.833-1.333l1,7.667c0,0-1.833,1.333-5.5,1.667S85.071,215.167,85.071,215.167z"/>
<polygon points="98.737,205.333 108.737,201.333 110.404,209 99.904,212.5 "/>
<polygon points="112.071,200.333 124.071,196 125.737,203.333 114.071,207.333 "/>
<polygon points="131.738,193 137.738,191 139.571,198.667 128.571,202.667 126.238,195 "/>
<polygon points="140.904,190.333 152.404,187.333 153.738,194.5 142.738,197.667 "/>
<polygon points="155.071,186.667 163.071,184.667 164.071,192 156.238,193.5 "/>
<polygon points="165.406,184.167 173.072,182.833 174.239,190.333 166.571,191.333 "/>
<polygon points="175.405,183 183.571,182.333 184.571,189.167 176.571,190 "/>
<polygon points="185.571,182.417 190.738,182.333 192.571,182.333 194.404,188.667 186.738,189 "/>
<path fill="#D1BB6F" d="M112.404,162.667c0,0-14.583,0.333-27.083,5.625c-9.042,3.828-12.595,6.244-15.5,9.875
	c-0.5,0.625-0.917,1.042-0.917,1.042l3.5,2.458c0,0,5.792-7,12.667-10s28.75-6.333,28.75-6.333L112.404,162.667z"/>
<path fill="#CEA665" d="M203.738,199c0,0,14.083,1.417,23.333-5.833s12.75-13.25,13.25-17s2-12,2-12l3.25,0.5
	c0,0-1.157,22.217-15.966,30.54c-13.68,7.688-14.44,7.098-20.034,7.71c-7.224,0.791-8.5-0.583-8.5-0.583L203.738,199z"/>
<polygon fill="#694E30" points="174.405,0 178.071,0.333 187.738,172.333 188.404,175.833 169.246,175.261 "/>
<polygon fill="#694E30" points="200.405,29 152.738,40.333 151.738,43 200.738,31.667 201.405,29.667 "/>
<path fill="#8C6631" d="M260.071,161.167c0,0,2.746-3.94,1.5-9.75c-0.641-2.986-0.5-5.75-0.5-5.75s-2.667,2.531-5.396,3.279
	c-8.083,2.215-7.354,1.971-9.854,4.971s-3.5,10.25-3.5,10.25l2.047,0.328l1.203,0.172L260.071,161.167z"/>
<polygon fill="#694E30" points="233.071,103.167 206.821,104.167 205.821,107.417 230.071,105.667 232.571,104.917 "/>
<polygon fill="#694E30" points="224.571,76.667 197.821,79.417 197.821,80.417 199.571,80.917 224.321,78.667 "/>
<path d="M167.738,75.333L185.048,75l-0.629,2l-1.574,1c0,0-2.517-1-4.091-1s-6.296,0.333-6.296,1.667S170.885,80,170.885,80
	L167.738,75.333z"/>
<path fill="#660D12" d="M197.821,183.167c0,0,10.5,13.75,16.75,12.5s18-6.25,21-14s0-11.75,0-11.75s-35-4.5-39.75-5.25
	s-8.5-3.75-8.5-3.75l0.25-4l12-5c0,0,18.5,0.5,27,2.25s17.5,2.5,17.5,2.5s-2.75,17-4.5,22.25s-9.75,13-17.5,17
	S203.738,199,203.738,199s-4.167-3.583-4.917-8.083S197.821,183.167,197.821,183.167z"/>
<polygon fill="#543A1E" points="178.071,0.333 188.404,175.833 179.924,175.247 176.091,0.211 "/>
<path fill="#694E30" d="M210.321,60.167h2.25l4,103.5c0,0-2.5,0.75-5,0.75s-5.25-0.75-5.25-0.75L210.321,60.167z"/>
<g id="Ebene_3">
	<path fill="#AC8C55" d="M187.321,160.917c0,0,3.25,2.875,9.625,3.875s26.375,3.625,26.375,3.625l12.375,1.875
		c0,0,10.334,3.75-4.458,16.625c-8.222,7.156-12.292,6.75-12.292,6.75l-23-15.75c0,0-3.875-1.583-4.875-1.75s-3.125-0.5-3.125-0.5
		L187.321,160.917z"/>
	<path fill="#735428" d="M227.711,178.837c0,0,7.441-4.005,8.942-5.004c1.251-0.833,4.751-2.417,5.834-7.75
		c0.551-2.71,0.1,0.68,0.5-4.5l0.5-3.333l0.583-1.583l-2.249-0.333l-15.584,20.75L227.711,178.837z"/>
	<polygon fill="#9D7236" stroke="#59421F" stroke-width="0.5" points="232.842,155.291 232.889,157.755 231.39,157.755 
		231.39,159.663 229.618,159.663 229.618,161.844 228.255,161.844 228.255,164.025 226.892,164.025 226.892,166.615 
		225.393,166.615 225.393,168.659 223.757,168.659 223.757,170.84 222.257,170.84 222.257,172.476 220.349,172.476 220.349,175.338 
		218.441,175.338 218.441,177.246 227.711,178.837 227.711,176.929 229.62,176.929 229.62,174.067 231.528,174.067 231.528,172.431 
		233.028,172.431 233.028,170.25 234.664,170.25 234.664,168.206 236.163,168.206 236.163,165.616 237.526,165.616 237.526,163.435 
		238.888,163.435 238.888,161.254 240.661,161.254 240.661,159.346 242.16,159.346 242.113,156.882 	"/>
	<line fill="none" stroke="#5A3D1C" stroke-width="0.5" x1="227.711" y1="176.929" x2="218.441" y2="175.338"/>
	<line fill="none" stroke="#5A3D1C" stroke-width="0.5" x1="229.623" y1="174.79" x2="220.352" y2="173.199"/>
	<line fill="none" stroke="#5A3D1C" stroke-width="0.5" x1="242.162" y1="159.115" x2="232.891" y2="157.524"/>
	<line fill="none" stroke="#5A3D1C" stroke-width="0.5" x1="231.531" y1="173.973" x2="222.26" y2="172.381"/>
	<line fill="none" stroke="#5A3D1C" stroke-width="0.5" x1="231.667" y1="172.473" x2="222.396" y2="170.882"/>
	<line fill="none" stroke="#5A3D1C" stroke-width="0.5" x1="233.03" y1="172.064" x2="223.759" y2="170.473"/>
	<line fill="none" stroke="#5A3D1C" stroke-width="0.5" x1="233.03" y1="170.292" x2="223.759" y2="168.701"/>
	<line fill="none" stroke="#5A3D1C" stroke-width="0.5" x1="234.392" y1="169.883" x2="225.122" y2="168.292"/>
	<line fill="none" stroke="#5A3D1C" stroke-width="0.5" x1="234.801" y1="168.248" x2="225.531" y2="166.656"/>
	<line fill="none" stroke="#5A3D1C" stroke-width="0.25" x1="236.029" y1="167.975" x2="226.758" y2="166.383"/>
	<line fill="none" stroke="#5A3D1C" stroke-width="0.5" x1="236.029" y1="165.794" x2="226.758" y2="164.203"/>
	<line fill="none" stroke="#5A3D1C" stroke-width="0.5" x1="237.528" y1="165.249" x2="228.257" y2="163.658"/>
	<line fill="none" stroke="#5A3D1C" stroke-width="0.5" x1="237.391" y1="163.614" x2="228.121" y2="162.022"/>
	<line fill="none" stroke="#5A3D1C" stroke-width="0.5" x1="238.754" y1="163.204" x2="229.484" y2="161.613"/>
	<line fill="none" stroke="#5A3D1C" stroke-width="0.5" x1="238.89" y1="161.433" x2="229.62" y2="159.841"/>
	<line fill="none" stroke="#5A3D1C" stroke-width="0.5" x1="240.663" y1="159.388" x2="231.392" y2="157.797"/>
	<ellipse stroke="#59421F" stroke-width="0.5" cx="220.356" cy="160.477" rx="2.312" ry="6.143"/>
	<g>
		<ellipse stroke="#9E7846" stroke-width="0.25" cx="226.598" cy="159.799" rx="2.067" ry="2.565"/>
		<line fill="none" stroke="#9E7846" stroke-width="0.25" x1="224.399" y1="159.479" x2="228.626" y2="160.271"/>
		<line fill="none" stroke="#9E7846" stroke-width="0.25" x1="226.598" y1="157.233" x2="226.598" y2="162.364"/>
	</g>
</g>
<line fill="none" stroke="#3F3F3F" x1="222.064" y1="192.621" x2="204.064" y2="159.287"/>
<line fill="none" stroke="#3F3F3F" x1="205.023" y1="158.458" x2="224.509" y2="191.597"/>
<line fill="none" stroke="#3F3F3F" x1="206.016" y1="157.838" x2="226.495" y2="190.48"/>
<line fill="none" stroke="#3F3F3F" x1="206.885" y1="157.714" x2="227.86" y2="189.487"/>
<line fill="none" stroke="#3F3F3F" x1="153.89" y1="170.497" x2="156.993" y2="151.756"/>
<line fill="none" stroke="#3F3F3F" x1="156.744" y1="170.001" x2="158.358" y2="151.011"/>
<line fill="none" stroke="#3F3F3F" x1="159.599" y1="169.008" x2="158.854" y2="150.763"/>
<line fill="none" stroke="#3F3F3F" x1="159.971" y1="150.267" x2="162.081" y2="168.387"/>
<linearGradient id="XMLID_22_" gradientUnits="userSpaceOnUse" x1="210.729" y1="80.0576" x2="212.729" y2="92.0576">
	<stop  offset="0" style="stop-color:#FFFFFF"/>
	<stop  offset="0.2135" style="stop-color:#D4D4D4"/>
	<stop  offset="0.4574" style="stop-color:#AAAAAA"/>
	<stop  offset="0.6785" style="stop-color:#8C8C8C"/>
	<stop  offset="0.8668" style="stop-color:#7A7A7A"/>
	<stop  offset="1" style="stop-color:#737373"/>
</linearGradient>
<path fill="url(#XMLID_22_)" stroke="#8C8C8C" stroke-width="0.5" d="M224.321,78.667c0,0-2.25,15.5-6,16.75s-12.5,1.5-12.5,1.5
	s-8.75,0.5-8-16.5L224.321,78.667z"/>
<linearGradient id="XMLID_23_" gradientUnits="userSpaceOnUse" x1="213.1958" y1="107.1665" x2="213.1958" y2="131.6665">
	<stop  offset="0" style="stop-color:#FFFFFF"/>
	<stop  offset="0.2135" style="stop-color:#D4D4D4"/>
	<stop  offset="0.4574" style="stop-color:#AAAAAA"/>
	<stop  offset="0.6785" style="stop-color:#8C8C8C"/>
	<stop  offset="0.8668" style="stop-color:#7A7A7A"/>
	<stop  offset="1" style="stop-color:#737373"/>
</linearGradient>
<path fill="url(#XMLID_23_)" stroke="#8C8C8C" stroke-width="0.5" d="M231.821,105.667l-33.25,2.5l-6.75,25.5l42.75-1.5
	C234.571,132.167,223.321,118.667,231.821,105.667z"/>
<linearGradient id="XMLID_24_" gradientUnits="userSpaceOnUse" x1="172.5005" y1="92.1665" x2="172.5005" y2="150.6665">
	<stop  offset="0" style="stop-color:#FFFFFF"/>
	<stop  offset="0.2135" style="stop-color:#D4D4D4"/>
	<stop  offset="0.4574" style="stop-color:#AAAAAA"/>
	<stop  offset="0.6785" style="stop-color:#8C8C8C"/>
	<stop  offset="0.8668" style="stop-color:#7A7A7A"/>
	<stop  offset="1" style="stop-color:#737373"/>
</linearGradient>
<path fill="url(#XMLID_24_)" stroke="#8C8C8C" stroke-width="0.5" d="M210.405,162c0,0-6-35.667-3-51.667s4-23,4-23l-65.334,4.333
	c0,0-18.666,28-10.333,61.333c0,0,12.334,0.667,23.667,0.667s23.333-2,31.333,2s18.333,8,18.333,8L210.405,162z"/>
<linearGradient id="XMLID_25_" gradientUnits="userSpaceOnUse" x1="177.5376" y1="123.7515" x2="170.8716" y2="147.085">
	<stop  offset="0" style="stop-color:#FFFFFF"/>
	<stop  offset="0.1944" style="stop-color:#C4C4C4"/>
	<stop  offset="0.3961" style="stop-color:#8F8F8F"/>
	<stop  offset="0.5846" style="stop-color:#656565"/>
	<stop  offset="0.7539" style="stop-color:#464646"/>
	<stop  offset="0.8981" style="stop-color:#343434"/>
	<stop  offset="1" style="stop-color:#2D2D2D"/>
</linearGradient>
<path opacity="0.67" fill="url(#XMLID_25_)" stroke="#8C8C8C" stroke-width="0.5" d="M210.405,162c0,0-6-35.667-3-51.667s4-23,4-23
	l-65.334,4.333c0,0-18.666,28-10.333,61.333c0,0,12.334,0.667,23.667,0.667s23.333-2,31.333,2s18.333,8,18.333,8L210.405,162z"/>
<polygon fill="#694E30" points="216.738,82 149.738,89 147.404,88.667 147.071,92.333 216.405,86.333 "/>
<path fill="#694E30" d="M138.071,172l0.667-168l1.333-4l2.333,0.667l7,170.667l6.333-0.333l0.333,5c0,0-13.5,1.833-15.5,2.833
	L138.071,172z"/>
<path fill="#691714" d="M150.828,173.265l0.409-1.931l18.372-5.236l-0.363,9.164c0,0-8.075,0.453-14.335,0.998
	S150.828,173.265,150.828,173.265z"/>
<path fill="#5B3F23" d="M147.949,96c-1.132,0,0-4,0-4l0.509-6.667h-1.509v-7L146.571,73l1.886-4.333c0,0,1.509-0.333-2.264-1.667
	c-3.773-1.333-2.264-4.333-2.264-4.333l-2.142-0.946v-0.054l-0.061,0.027l-0.061-0.027v0.054l-2.142,0.946c0,0,1.509,3-2.264,4.333
	c-3.773,1.333-2.264,1.667-2.264,1.667L136.882,73l-0.377,5.333v7h-1.509L136.505,92c0,0,1.132,5,0,5
	c-1.132,0-3.15,2.667-3.15,2.667l18.744-1C152.099,98.667,149.081,96,147.949,96z"/>
<polygon fill="#4D351B" points="142.404,0.667 149.404,171.333 151.237,171.333 153.25,176.498 146.201,177.519 140.071,0 "/>
<path fill="#694E30" d="M110.404,104.333c0,0,60.667-2.667,61.667-3s1.334-3.667,1.334-3.667l-1.334-1.333l-59.333,4l-2.667,0.333
	l-1,1.667L110.404,104.333z"/>
<polygon fill="#694E30" points="160.405,25.667 122.738,33 120.404,34.333 121.404,36 124.404,36 156.738,29 159.738,28 "/>
<linearGradient id="XMLID_26_" gradientUnits="userSpaceOnUse" x1="175.2378" y1="36.2803" x2="175.2378" y2="66.9015">
	<stop  offset="0" style="stop-color:#FFFFFF"/>
	<stop  offset="0.2135" style="stop-color:#D4D4D4"/>
	<stop  offset="0.4574" style="stop-color:#AAAAAA"/>
	<stop  offset="0.6785" style="stop-color:#8C8C8C"/>
	<stop  offset="0.8668" style="stop-color:#7A7A7A"/>
	<stop  offset="1" style="stop-color:#737373"/>
</linearGradient>
<path fill="url(#XMLID_26_)" stroke="#8C8C8C" stroke-width="0.5" d="M199.738,30.667c0,0,0.108,20.688-3.667,26.667
	c-1,1.583-2.333,3.917-2.333,3.917s-0.75,1.333-3.333,3.417c-2.671,2.155-6.334,0.333-6.334,0.333l-1.333-1.667c0,0,0.667,4-1,5.333
	s-6.857,4.894-11,0c-1.834-2.167-2.917-2.5-2.917-2.5s1.016,2.531-1.875,3.375c-1.552,0.453-3.208,0.542-5.208-1.792
	s-6-10.083-6-10.083l-4-14.333L199.738,30.667z"/>
<linearGradient id="XMLID_27_" gradientUnits="userSpaceOnUse" x1="140.2998" y1="104.1665" x2="140.2998" y2="136.6665">
	<stop  offset="0" style="stop-color:#FFFFFF"/>
	<stop  offset="0.2135" style="stop-color:#D4D4D4"/>
	<stop  offset="0.4574" style="stop-color:#AAAAAA"/>
	<stop  offset="0.6785" style="stop-color:#8C8C8C"/>
	<stop  offset="0.8668" style="stop-color:#7A7A7A"/>
	<stop  offset="1" style="stop-color:#737373"/>
</linearGradient>
<path fill="url(#XMLID_27_)" stroke="#8C8C8C" stroke-width="0.5" d="M108.833,103.172l64.072-3.839c0,0-8.226,35.988-6.493,38.867
	c1.731,2.879-48.488,1.919-48.488,1.919S103.637,131.962,108.833,103.172z"/>
<linearGradient id="XMLID_28_" gradientUnits="userSpaceOnUse" x1="141.3193" y1="32.6665" x2="141.3193" y2="61.1665">
	<stop  offset="0" style="stop-color:#FFFFFF"/>
	<stop  offset="0.2135" style="stop-color:#D4D4D4"/>
	<stop  offset="0.4574" style="stop-color:#AAAAAA"/>
	<stop  offset="0.6785" style="stop-color:#8C8C8C"/>
	<stop  offset="0.8668" style="stop-color:#7A7A7A"/>
	<stop  offset="1" style="stop-color:#737373"/>
</linearGradient>
<path fill="url(#XMLID_28_)" stroke="#8C8C8C" stroke-width="0.5" d="M122.404,36.333c0,0-3.937,15.75,0.333,21.667
	s6.771,7.604,8,7.667c3.583-0.313,6.021-2.25,6.021-2.25s2.375,0.813,6.032,0.542c2.723-0.201,2.843,0.02,4.906-2.23
	c0,0,5.813,2.938,8.396,0.188c2.458-2.617,6.646-12.583,5.646-16.917s-3-11.667-3-11.667l-2-4.333L122.404,36.333z"/>
<path d="M133.777,66.667c0,0,6.25-1,7.987-1c1.736,0,7.292,1.333,7.292,1.333l0.347,2.333l-1.736,0.333c0,0-2.084-0.333-6.599-0.333
	s-5.903,0.333-5.903,0.333L133.777,66.667z"/>
<path fill="#694E30" d="M245.571,164.667c0,0-0.5-9.625,1.875-10.75s7.945-4.591,9.926-5.62c1.829-0.95,3.699-2.63,3.699-2.63
	s-0.999-1.674-2.786-2.935c-2.126-1.499-5.089-4.44-22.964-5.315s-20-0.125-20-0.125v1.25c0,0,21.5-1.375,30.875,1.125
	s7.188,1.792,9.847,3.231s3.212,2.491,3.212,2.491s-5.73,3.373-11.267,6.063c-1.439,0.7-3.792,3.84-4.292,6.215s-1,6.5-1,6.5
	L245.571,164.667z"/>
<path d="M38.071,332.999c0,0,0.5,6.5-12.5,7s-13.5-3.5-16-6.5s-2.5-5-2.5-5l11-6l20-1V332.999z"/>
<linearGradient id="XMLID_29_" gradientUnits="userSpaceOnUse" x1="17.2441" y1="330.7212" x2="27.0708" y2="330.7212">
	<stop  offset="0.0056" style="stop-color:#000000"/>
	<stop  offset="0.7303" style="stop-color:#3F2200"/>
	<stop  offset="0.7824" style="stop-color:#532A00"/>
	<stop  offset="0.8636" style="stop-color:#6B3300"/>
	<stop  offset="0.9384" style="stop-color:#7A3900"/>
	<stop  offset="1" style="stop-color:#7F3B00"/>
</linearGradient>
<path fill="url(#XMLID_29_)" d="M27.071,325.884v8.261c0,0-7.5,0-9,1.271s-0.5-6.354-0.5-6.354L27.071,325.884z"/>
<linearGradient id="XMLID_30_" gradientUnits="userSpaceOnUse" x1="17.2876" y1="326.9858" x2="38.2559" y2="326.9858">
	<stop  offset="0" style="stop-color:#904F2C"/>
	<stop  offset="0.171" style="stop-color:#AB6E3F"/>
	<stop  offset="0.4206" style="stop-color:#CD9557"/>
	<stop  offset="0.6503" style="stop-color:#E5B169"/>
	<stop  offset="0.8508" style="stop-color:#F4C273"/>
	<stop  offset="1" style="stop-color:#F9C877"/>
</linearGradient>
<path fill="url(#XMLID_30_)" d="M17.288,331.171l0.571-8.322l20.397-1.876l-0.185,12.025c0,0-3.5-5-7.5-5.5s-8-0.5-9.5,0.5
	S17.288,331.171,17.288,331.171z"/>
<radialGradient id="XMLID_31_" cx="20.5708" cy="338.9985" r="9.0139" gradientUnits="userSpaceOnUse">
	<stop  offset="0" style="stop-color:#FFFFFF"/>
	<stop  offset="1" style="stop-color:#000000"/>
</radialGradient>
<ellipse fill="url(#XMLID_31_)" cx="20.571" cy="338.999" rx="9.5" ry="8.5"/>
<radialGradient id="XMLID_32_" cx="24.9878" cy="253.6665" r="10.5416" gradientUnits="userSpaceOnUse">
	<stop  offset="0" style="stop-color:#FFFFFF"/>
	<stop  offset="1" style="stop-color:#000000"/>
</radialGradient>
<ellipse fill="url(#XMLID_32_)" cx="24.988" cy="253.667" rx="10.583" ry="10.5"/>
<linearGradient id="XMLID_33_" gradientUnits="userSpaceOnUse" x1="21.0649" y1="258.834" x2="29.1167" y2="258.834">
	<stop  offset="0.0056" style="stop-color:#000000"/>
	<stop  offset="0.7303" style="stop-color:#3F2200"/>
	<stop  offset="0.7824" style="stop-color:#532A00"/>
	<stop  offset="0.8636" style="stop-color:#6B3300"/>
	<stop  offset="0.9384" style="stop-color:#7A3900"/>
	<stop  offset="1" style="stop-color:#7F3B00"/>
</linearGradient>
<path fill="url(#XMLID_33_)" d="M29.071,257.167c-0.102-1.865-0.394-2.717-3.53-3.112s-4.578,1.523-4.47,2.112s0,7.5,0,7.5
	l8.002-0.887C29.073,262.779,29.173,259.032,29.071,257.167z"/>
<path d="M264.737,254.167c0,0-0.5-6.5,12.5-7s13.886,3.353,16.386,6.353s2.425,5.086,2.425,5.086l-11.311,6.061l-20,1V254.167z"/>
<linearGradient id="XMLID_34_" gradientUnits="userSpaceOnUse" x1="-867.9219" y1="43.8892" x2="-858.0952" y2="43.8892" gradientTransform="matrix(-1 0 0 -1 -582.3584 300.333)">
	<stop  offset="0.0056" style="stop-color:#000000"/>
	<stop  offset="0.7303" style="stop-color:#3F2200"/>
	<stop  offset="0.7824" style="stop-color:#532A00"/>
	<stop  offset="0.8636" style="stop-color:#6B3300"/>
	<stop  offset="0.9384" style="stop-color:#7A3900"/>
	<stop  offset="1" style="stop-color:#7F3B00"/>
</linearGradient>
<path fill="url(#XMLID_34_)" d="M275.737,261.281v-8.261c0,0,7.5,0,9-1.271c1.5-1.271,0.5,6.354,0.5,6.354L275.737,261.281z"/>
<linearGradient id="XMLID_35_" gradientUnits="userSpaceOnUse" x1="258.0698" y1="260.1812" x2="288.7368" y2="260.1812">
	<stop  offset="0" style="stop-color:#904F2C"/>
	<stop  offset="0.171" style="stop-color:#AB6E3F"/>
	<stop  offset="0.4206" style="stop-color:#CD9557"/>
	<stop  offset="0.6503" style="stop-color:#E5B169"/>
	<stop  offset="0.8508" style="stop-color:#F4C273"/>
	<stop  offset="1" style="stop-color:#F9C877"/>
</linearGradient>
<path fill="url(#XMLID_35_)" d="M285.706,256.167l-0.5,8.5l-20.457,1.529l-0.012-12.029c0,0,3.5,5,7.5,5.5s8,0.5,9.5-0.5
	S285.706,256.167,285.706,256.167z"/>
<radialGradient id="XMLID_36_" cx="-862.5952" cy="53.1665" r="9.0139" gradientTransform="matrix(-1 0 0 -1 -582.3584 300.333)" gradientUnits="userSpaceOnUse">
	<stop  offset="0" style="stop-color:#FFFFFF"/>
	<stop  offset="1" style="stop-color:#000000"/>
</radialGradient>
<ellipse fill="url(#XMLID_36_)" cx="280.237" cy="247.167" rx="9.5" ry="8.5"/>
<radialGradient id="XMLID_37_" cx="-860.1782" cy="-31.1655" r="10.5416" gradientTransform="matrix(-1 0 0 -1 -582.3584 300.333)" gradientUnits="userSpaceOnUse">
	<stop  offset="0" style="stop-color:#FFFFFF"/>
	<stop  offset="0.1455" style="stop-color:#D3D3D3"/>
	<stop  offset="0.4612" style="stop-color:#7A7A7A"/>
	<stop  offset="0.7185" style="stop-color:#383838"/>
	<stop  offset="0.9043" style="stop-color:#101010"/>
	<stop  offset="1" style="stop-color:#000000"/>
</radialGradient>
<ellipse fill="url(#XMLID_37_)" cx="277.82" cy="331.499" rx="10.583" ry="10.5"/>
<linearGradient id="XMLID_38_" gradientUnits="userSpaceOnUse" x1="-864.0952" y1="-27.6929" x2="-856.0952" y2="-27.6929" gradientTransform="matrix(-1 0 0 -1 -582.3584 300.333)">
	<stop  offset="0.0056" style="stop-color:#000000"/>
	<stop  offset="0.7303" style="stop-color:#3F2200"/>
	<stop  offset="0.7824" style="stop-color:#532A00"/>
	<stop  offset="0.8636" style="stop-color:#6B3300"/>
	<stop  offset="0.9384" style="stop-color:#7A3900"/>
	<stop  offset="1" style="stop-color:#7F3B00"/>
</linearGradient>
<path fill="url(#XMLID_38_)" d="M273.737,329.999c0,0,0.364,2.105,3.5,2.5s4.5-1.5,4.5-1.5v-7.5l-8,1.5V329.999z"/>
<linearGradient id="XMLID_39_" gradientUnits="userSpaceOnUse" x1="7.5786" y1="293.5317" x2="295.7368" y2="293.5317">
	<stop  offset="0" style="stop-color:#904F2C"/>
	<stop  offset="0.171" style="stop-color:#AB6E3F"/>
	<stop  offset="0.4206" style="stop-color:#CD9557"/>
	<stop  offset="0.6503" style="stop-color:#E5B169"/>
	<stop  offset="0.8508" style="stop-color:#F4C273"/>
	<stop  offset="1" style="stop-color:#F9C877"/>
</linearGradient>
<path fill="url(#XMLID_39_)" d="M284.737,264.667l-26.5,2.5l-113.666-4l-9.5,2l-5.5,1l-7.5-4.5l-16.97,0.485l-30.53-0.985l-22.5-2
	l-7.5,4.5c0,0,0,2,0,3.5s-6.667,2.667-6.667,2.667l3.167-7.667c0,0-9,0.5-20,1.5s-12,7-12,7l-1.492,57.73l10.492-5.898l20.5-2.5
	l27,2.5l9.5-2l5.5-1l7.5,4.5l16.97-0.484l30.53,0.984l119.864,2.156l10.136-3.156c0,0,0-2,0-3.5s-6.668-2.666-6.668-2.666
	l2.834,7.666c0,0,9-0.5,20-1.5s12-7,12-7l2-57.832L284.737,264.667z"/>
<linearGradient id="XMLID_40_" gradientUnits="userSpaceOnUse" x1="151.6572" y1="269.334" x2="151.6572" y2="318.0005">
	<stop  offset="0" style="stop-color:#904F2C"/>
	<stop  offset="0.171" style="stop-color:#AB6E3F"/>
	<stop  offset="0.4206" style="stop-color:#CD9557"/>
	<stop  offset="0.6503" style="stop-color:#E5B169"/>
	<stop  offset="0.8508" style="stop-color:#F4C273"/>
	<stop  offset="1" style="stop-color:#F9C877"/>
</linearGradient>
<path opacity="0.57" fill="url(#XMLID_40_)" d="M284.737,264.667l-26.5,2.5l-113.666-4l-9.5,2l-5.5,1l-7.5-4.5l-16.97,0.485
	l-30.53-0.985l-22.5-2l-7.5,4.5c0,0,0,2,0,3.5s-6.667,2.667-6.667,2.667l3.167-7.667c0,0-9,0.5-20,1.5s-12,7-12,7l-1.492,57.73
	l10.492-5.898l20.5-2.5l27,2.5l9.5-2l5.5-1l7.5,4.5l16.97-0.484l30.53,0.984l119.864,2.156l10.136-3.156c0,0,0-2,0-3.5
	s-6.668-2.666-6.668-2.666l2.834,7.666c0,0,9-0.5,20-1.5s12-7,12-7l2-57.832L284.737,264.667z"/>
<g>
	<path d="M48.4,306.378c0.133-0.122,0.267-0.244,0.271-0.37s-0.631-0.523-5.576-3.764c-4.565-2.976-6.524-6.565-6.418-10.029
		c0.184-5.981,4.728-10.759,13.415-17.804l0.699,0.399c-0.133,0.122-0.266,0.244-0.27,0.37s0.631,0.524,5.642,3.703
		c3.553,2.251,6.744,5.753,6.626,9.595c-0.156,5.101-4.465,10.642-13.689,18.3L48.4,306.378z M46.89,279.67
		c-1.486-0.045-5.651,2.916-5.805,7.953c-0.326,10.642,9.556,13.15,10.655,13.185c3.166,0.097,6.523-3.96,6.67-8.746
		C58.663,283.813,48.829,279.73,46.89,279.67z"/>
	<path d="M64.886,281.167c1.869-1.896,3.886-4.419,5.233-6.143c3.527,3.07,4.756,5.188,4.598,10.352
		c-0.014,0.441-0.089,0.816-0.103,1.258l0.129,0.004c3.005-5.203,4.406-6.609,8.686-11.206l0.699,0.4
		c-0.066,0.061-0.135,0.185-0.139,0.311c-0.05,1.638,8.081,6.425,7.876,13.1c-0.235,7.682-10.377,15.755-12.477,18.842l-0.764-0.402
		c0.135-0.184,0.206-0.371,0.215-0.687c0.017-0.566-2.708-2.352-5.125-3.687c-0.114,3.716-0.545,7.232-0.651,10.695
		c-0.052,1.7-0.039,3.401-0.091,5.103c-2.298,1.127-3.417,1.786-5.531,3.234c1.19-5.069,1.778-15.829,2.115-20.483
		c-0.194-0.006-0.45-0.076-0.708-0.084c-0.517-0.016-1.315,0.716-1.587,1.148l-0.764-0.401c0.945-1.295,2.084-2.583,3.282-3.682
		c0.147-2.706,0.428-5.533,0.501-7.926c0.156-5.101-0.778-10.487-2.652-10.544c-0.581-0.018-1.374,0.525-1.977,1.2L64.886,281.167z
		 M80.72,281.526c-2.391-0.073-6.465,8.375-6.749,17.63c2.941,1.099,6.089,3.905,7.316,3.943c1.616,0.05,6.46-6.105,6.572-9.758
		C88.008,288.495,82.464,281.58,80.72,281.526z"/>
	<path d="M114.615,298.134c-3.063,2.868-7.187,6.586-10.276,10.336l-0.7-0.399l0.27-0.369c-3.488-2.25-10.045-7.745-9.829-14.799
		c0.276-9.004,11.198-15.099,12.542-16.759c2.158,1.327,4.16,3.531,5.681,6.667l0.92-0.477l0.429,0.77
		c-4.744,2.88-6.461,4.025-14.453,9.453l0.75-3.381l0.452,0.014c0.051,0.442,0.243,0.512,0.566,0.521
		c0.517,0.016,5.8-3.541,5.821-4.233c0.048-1.574-1.541-4.585-2.768-4.623c-2.262-0.069-5.808,3.793-5.937,8.012
		c-0.258,8.438,7.268,13.963,9.013,14.017c0.387,0.012,0.783-0.228,1.646-0.958l4.989-4.511L114.615,298.134z"/>
	<path d="M133.138,282.439c-3.158,3.875-7.283,9.736-8.526,14.425c-0.512,1.938-0.797,7.034-0.924,9.047
		c-1.773,0.892-3.287,1.728-4.942,3c1.171-4.438,2.077-19.223,2.44-24.758c-1.208-0.668-1.897-1.383-2.779-2.166l-2.399,2.322
		l-0.881-0.783c2.396-2.196,4.196-3.969,6.215-6.554c1.495,1.874,3.073,3.12,5.18,4.004c-0.941,1.168-1.466,5.627-2.51,12.277
		l0.129,0.004c2.007-4.287,9.63-14.58,12.072-16.207l0.629,0.586l-0.34,0.557l5.116,4.002l0.452,0.014l-0.035,1.133l-0.517-0.016
		c-0.877,1.171-2.331,8.501-2.514,14.483c-0.11,3.589,0.605,5.564,3.533,7.104l2.666-2.566l0.883,0.721
		c-1.855,1.456-3.54,3.674-5.89,6.501c-4.246-2.841-5.283-4.889-5.102-10.809c0.093-3.022,0.967-10.434,1.521-13.757
		L133.138,282.439z"/>
	<path d="M188.337,302.346l0.882,0.784l-6.963,7.728c-3.065-3.371-3.746-6.48-3.904-9.763l-0.129-0.004
		c-2.17,3.274-5.073,7.282-8.631,9.379l-0.505-0.394l0.468-0.49c-3.783-3.142-6.897-9.161-6.739-14.325
		c0.184-5.981,3.313-8.911,14.165-16.961c4.285,3.661,6.513,4.864,8.961,5.127c-2.668,2.691-3.408,7.838-3.572,13.189
		c-0.141,4.598,0.73,7.839,3.162,8.669L188.337,302.346z M173.001,304.776c1.873,0.058,4.458-4.086,4.959-9.869
		c0.498-5.721,0.819-7.791,1.566-8.902c-2.623-0.963-4.697-2.917-5.602-2.945c-1.099-0.033-6.552,2.762-6.754,9.373
		C166.92,300.62,171.192,304.72,173.001,304.776z"/>
	<path d="M207.244,284.71c-3.158,3.874-7.282,9.735-8.525,14.425c-0.512,1.938-0.798,7.034-0.924,9.048
		c-1.773,0.891-3.286,1.727-4.942,3c1.171-4.438,2.076-19.224,2.44-24.759c-1.209-0.667-1.898-1.382-2.78-2.165l-2.398,2.321
		l-0.881-0.783c2.396-2.195,4.195-3.968,6.215-6.554c1.494,1.874,3.073,3.12,5.18,4.004c-0.94,1.168-1.466,5.628-2.51,12.277
		l0.129,0.004c2.007-4.288,9.63-14.581,12.073-16.208l0.628,0.586l-0.341,0.557l5.116,4.002l0.452,0.014l-0.035,1.134l-0.516-0.017
		c-0.878,1.171-2.33,8.501-2.514,14.483c-0.11,3.589,0.605,5.565,3.533,7.104l2.665-2.565l0.884,0.721
		c-1.855,1.455-3.54,3.673-5.891,6.5c-4.246-2.841-5.282-4.889-5.102-10.808c0.093-3.023,0.967-10.434,1.521-13.758L207.244,284.71z
		"/>
	<path d="M238.32,285.663c-3.158,3.875-7.282,9.736-8.525,14.425c-0.512,1.938-0.798,7.035-0.924,9.048
		c-1.773,0.891-3.286,1.727-4.942,3c1.171-4.438,2.076-19.223,2.44-24.759c-1.209-0.667-1.898-1.382-2.779-2.165l-2.399,2.321
		l-0.881-0.783c2.396-2.195,4.195-3.968,6.215-6.554c1.494,1.874,3.073,3.12,5.18,4.004c-0.94,1.169-1.466,5.628-2.51,12.277
		l0.129,0.004c2.007-4.288,9.63-14.58,12.073-16.208l0.628,0.586l-0.34,0.557l5.115,4.001l0.452,0.014l-0.035,1.134l-0.516-0.016
		c-0.878,1.171-2.33,8.501-2.514,14.482c-0.109,3.589,0.605,5.565,3.533,7.104l2.665-2.565l0.884,0.721
		c-1.855,1.455-3.54,3.674-5.891,6.5c-4.246-2.84-5.282-4.889-5.102-10.808c0.093-3.023,0.967-10.434,1.521-13.757L238.32,285.663z"
		/>
	<path d="M263.544,312.971c0.133-0.122,0.267-0.244,0.271-0.37s-0.631-0.523-5.576-3.763c-4.565-2.977-6.524-6.566-6.418-10.029
		c0.183-5.982,4.727-10.76,13.414-17.805l0.699,0.399c-0.133,0.122-0.267,0.244-0.27,0.37c-0.004,0.126,0.63,0.524,5.642,3.703
		c3.553,2.252,6.744,5.754,6.626,9.595c-0.156,5.101-4.465,10.642-13.688,18.3L263.544,312.971z M262.035,286.263
		c-1.485-0.045-5.65,2.916-5.805,7.953c-0.326,10.643,9.556,13.151,10.653,13.185c3.167,0.097,6.524-3.96,6.671-8.746
		C273.807,290.406,263.973,286.323,262.035,286.263z"/>
</g>
<line fill="none" stroke="#000000" stroke-width="0.5" stroke-linejoin="round" x1="116.655" y1="102.49" x2="116.587" y2="100.071"/>
<line fill="none" stroke="#000000" stroke-width="0.5" stroke-linejoin="round" x1="124.905" y1="101.865" x2="124.837" y2="99.446"/>
<line fill="none" stroke="#000000" stroke-width="0.5" stroke-linejoin="round" x1="133.655" y1="101.365" x2="133.587" y2="98.946"/>
<line fill="none" stroke="#000000" stroke-width="0.5" stroke-linejoin="round" x1="141.53" y1="100.865" x2="141.462" y2="98.446"/>
<line fill="none" stroke="#000000" stroke-width="0.5" stroke-linejoin="round" x1="150.28" y1="100.24" x2="150.212" y2="97.821"/>
<line fill="none" stroke="#000000" stroke-width="0.5" stroke-linejoin="round" x1="160.155" y1="99.615" x2="160.087" y2="97.196"/>
<line fill="none" stroke="#000000" stroke-width="0.5" stroke-linejoin="round" x1="171.03" y1="99.115" x2="170.962" y2="96.696"/>
<line fill="none" stroke="#000000" stroke-width="0.5" stroke-linejoin="round" x1="123.26" y1="35.836" x2="123.192" y2="32.949"/>
<line fill="none" stroke="#000000" stroke-width="0.5" stroke-linejoin="round" x1="156.843" y1="29.041" x2="156.775" y2="26.622"/>
<line fill="none" stroke="#000000" stroke-width="0.5" stroke-linejoin="round" x1="145.128" y1="31.228" x2="145.061" y2="28.809"/>
<line fill="none" stroke="#000000" stroke-width="0.5" stroke-linejoin="round" x1="133.803" y1="33.493" x2="133.736" y2="30.917"/>
<line fill="none" stroke="#000000" stroke-width="0.5" stroke-linejoin="round" x1="194.511" y1="32.259" x2="194.444" y2="30.465"/>
<line fill="none" stroke="#000000" stroke-width="0.5" stroke-linejoin="round" x1="181.311" y1="35.632" x2="181.244" y2="33.604"/>
<line fill="none" stroke="#000000" stroke-width="0.5" stroke-linejoin="round" x1="168.582" y1="38.99" x2="168.514" y2="36.571"/>
<line fill="none" stroke="#000000" stroke-width="0.5" stroke-linejoin="round" x1="223.493" y1="78.727" x2="223.425" y2="77.1"/>
<line fill="none" stroke="#000000" stroke-width="0.5" stroke-linejoin="round" x1="215.37" y1="79.396" x2="215.302" y2="77.64"/>
<line fill="none" stroke="#000000" stroke-width="0.5" stroke-linejoin="round" x1="199.438" y1="80.333" x2="199.371" y2="79.32"/>
<line fill="none" stroke="#000000" stroke-width="0.5" stroke-linejoin="round" x1="205.998" y1="80.099" x2="205.93" y2="78.499"/>
<line fill="none" stroke="#000000" stroke-width="0.5" stroke-linejoin="round" x1="231.435" y1="105.744" x2="231.368" y2="103.325"/>
<line fill="none" stroke="#000000" stroke-width="0.5" stroke-linejoin="round" x1="223.245" y1="106.05" x2="223.177" y2="103.631"/>
<line fill="none" stroke="#000000" stroke-width="0.5" stroke-linejoin="round" x1="214.526" y1="106.895" x2="214.458" y2="103.861"/>
<line fill="none" stroke="#000000" stroke-width="0.5" stroke-linejoin="round" x1="211.467" y1="87.24" x2="211.4" y2="82.696"/>
<line fill="none" stroke="#000000" stroke-width="0.5" stroke-linejoin="round" x1="195.842" y1="88.365" x2="195.775" y2="84.042"/>
<line fill="none" stroke="#000000" stroke-width="0.5" stroke-linejoin="round" x1="182.467" y1="89.417" x2="182.4" y2="85.758"/>
<line fill="none" stroke="#000000" stroke-width="0.5" stroke-linejoin="round" x1="167.842" y1="90.677" x2="167.775" y2="87.196"/>
<line fill="none" stroke="#000000" stroke-width="0.5" stroke-linejoin="round" x1="154.842" y1="91.667" x2="154.775" y2="88.508"/>
<path fill="#715228" d="M120.573,254.5c0,0,0.737-0.83,2.136-2.346c0.677-0.733,1.945-1.32,2.276-2.066
	c0.986-2.226,1.753-4.254,1.753-4.254s-0.667,3.833,4.5,4.5c0,0-3.272-0.664-5.583,0.667S120.573,254.5,120.573,254.5z"/>
<path fill="#715228" d="M123.488,258.083c0,0-3.875,3.5-9.583,3.417s-9.458-3.208-9.458-3.208s0.375-2.125-0.75-3.875
	s-3.375-4.875-4-4.875s-3.125,0.5-3.125,0.5l4.5-4.75c0,0,1.193,4.119,1.625,5.375c0.458,1.333,1,3,2.875,4.625s4,3.375,5.375,3.125
	s1,0.25,2-2.125s0.375-19.792,0.375-19.792l-0.125-9.583l0.708-0.171l0.167,28.671c0,0,0.333,3,2.083,3.25s3.417,0.125,5.292-0.75
	c0,0,2.458-1.167,2.958-1.75S123.488,258.083,123.488,258.083z"/>
<path fill="none" stroke="#8C6631" stroke-width="2" d="M139.649,175.531c-8.761,1.047-16.464,1.803-20.446,1.803
	c-12.951,0-20.505,0-28.869-2S79.812,170,92.223,168s22.664-1.333,22.664-1.333"/>
<line fill="none" stroke="#8C6631" stroke-linecap="round" x1="87.738" y1="175.333" x2="87.738" y2="184.986"/>
<line fill="none" stroke="#8C6631" stroke-linecap="round" x1="93.155" y1="176.083" x2="93.155" y2="186.568"/>
<line fill="none" stroke="#8C6631" stroke-linecap="round" x1="98.404" y1="176.75" x2="98.404" y2="187.417"/>
<line fill="none" stroke="#8C6631" stroke-linecap="round" x1="104.321" y1="177.333" x2="104.321" y2="188"/>
<line fill="none" stroke="#8C6631" stroke-linecap="round" x1="110.404" y1="177.417" x2="110.404" y2="188.083"/>
<line fill="none" stroke="#8C6631" stroke-linecap="round" x1="83.061" y1="171.245" x2="83.061" y2="182.381"/>
<path fill="none" stroke="#523C26" stroke-linecap="round" d="M110.583,188.635c-8.294-0.116-14.339-0.578-20.857-2.427
	c-4.022-1.142-6.664-2.635-7.061-4.155"/>
<line fill="none" stroke="#8C6631" stroke-linecap="round" x1="86.539" y1="169.62" x2="86.539" y2="179.062"/>
<line fill="none" stroke="#8C6631" x1="114.218" y1="166.083" x2="114.218" y2="176.157"/>
<line fill="none" stroke="#8C6631" stroke-linecap="round" x1="108.205" y1="167.409" x2="108.205" y2="175.79"/>
<line fill="none" stroke="#8C6631" stroke-linecap="round" x1="102.038" y1="167.826" x2="102.038" y2="176.207"/>
<line fill="none" stroke="#8C6631" stroke-linecap="round" x1="90.954" y1="168.825" x2="90.954" y2="177.873"/>
<line fill="none" stroke="#8C6631" stroke-linecap="round" x1="96.205" y1="168.409" x2="96.205" y2="176.79"/>
<path fill="#D1BB6F" d="M86.071,188c0,0-2.249-3.394-4.702-3.854s-8.964-2.48-8.964-2.48l10.078,6.765L86.071,188z"/>
<path fill="#AC8C55" d="M66.822,193.333l0.191-5.093l7.073,6.613c0,0-3.112-0.336-3.328-0.364
	C69.148,194.28,66.822,193.333,66.822,193.333z"/>
<path fill="none" stroke="#59421F" stroke-width="0.5" d="M227.711,178.837c0,0,5.37-2.564,7.257-3.836s3.51-2.501,3.51-2.501
	s1.053,1.273,0.702,3.028s-0.57,4.476-5.88,9.742s-9.698,7.065-11.673,7.68s-2.545,0.658-2.545,0.658"/>
</svg>
